<svg version="1.1" id="图层_1" xmlns="http://www.w3.org/2000/svg" xmlns:xlink="http://www.w3.org/1999/xlink" x="0px" y="0px"
	 viewBox="0 0 114.1 138.8" style="enable-background:new 0 0 114.1 138.8;" xml:space="preserve" fill="white">
<path d="M105,48.1c-8.4,5.1-13.5,14.2-13.6,24c0,11.1,6.7,21.1,16.9,25.4c-2,6.4-4.9,12.4-8.6,17.9c-5.4,7.7-11,15.5-19.6,15.5
	s-10.8-5-20.6-5c-9.6,0-13,5.1-20.9,5.1s-13.3-7.2-19.6-16C10.7,102.7,6.1,88.3,5.8,73.4c0-24.5,15.9-37.4,31.6-37.4
	c8.3,0,15.3,5.5,20.5,5.5c5,0,12.7-5.8,22.2-5.8C89.9,35.4,99.3,40,105,48.1z M58.5,34.2c-0.6,0-1.1-0.1-1.7-0.2
	c-0.2-0.8-0.2-1.5-0.2-2.3c0.3-6.3,2.7-12.3,6.9-17C68.2,9.3,74.8,5.9,82,5.2c0.2,0.8,0.3,1.7,0.2,2.5c-0.2,6.4-2.5,12.6-6.7,17.5
	C71.4,30.5,65.2,33.7,58.5,34.2z"/>
</svg>
