
<svg version="1.1" id="_レイヤー_2" xmlns="http://www.w3.org/2000/svg" xmlns:xlink="http://www.w3.org/1999/xlink" x="0px"
	 y="0px" viewBox="0 0 128.8 26" style="enable-background:new 0 0 128.8 26;" xml:space="preserve">
<style type="text/css">
	.st0{fill:#CC0000;}
</style>
<g id="_レイヤー_1-2">
	<g>
		<g>
			<path class="st0" d="M30.6,19c-1.9,2.7-5,4.5-8.6,4.5c-5.8,0-10.5-4.7-10.5-10.5S16.2,2.5,22,2.5c2,0,3.9,0.6,5.5,1.6L22,13
				l10.4-6c-1.7-2.6-4.1-4.6-7.1-5.7C23,0.5,20.5,0,17.9,0s-5.1,0.5-7.4,1.3C8,2.2,5.9,3.7,4.4,5.6c-1.7,2-2.6,4.6-2.6,7.4
				s1,5.4,2.6,7.4c1.6,1.9,3.7,3.4,6.1,4.3c2.3,0.9,4.8,1.3,7.4,1.3c1.7,0,3.3-0.2,4.9-0.5c3.2-0.8,6.1-2.5,8.3-4.8L30.6,19L30.6,19
				z"/>
			<path class="st0" d="M74.5,4.4c-0.6,0-1.1,0.1-1.6,0.4l-6.1,2.8c-0.3-1.8-1.9-3.2-3.7-3.2c-0.6,0-1.1,0.1-1.6,0.4l-7.4,3.5h5.2
				v17.1h7.6V10.2c0-1.1,0.8-1.9,1.9-1.9s1.9,0.9,1.9,1.9v15.2h7.6V8.2C78.3,6.1,76.6,4.4,74.5,4.4L74.5,4.4z"/>
			<path class="st0" d="M122.2,4.4c-0.6,0-1.1,0.1-1.6,0.4l-6.1,2.8c-0.3-1.8-1.9-3.2-3.8-3.2c-0.6,0-1.1,0.1-1.6,0.4l-7.4,3.5h5.2
				v17.1h7.6V10.2c0-1.1,0.8-1.9,1.9-1.9s1.9,0.9,1.9,1.9v15.2h7.6V8.2C126,6.1,124.3,4.4,122.2,4.4L122.2,4.4z"/>
			<path class="st0" d="M92.2,4.4c-5.9,0-10.8,4.8-10.8,10.8S86.3,26,92.2,26S103,21.2,103,15.2S98.2,4.4,92.2,4.4z M94.7,24.4
				c-1.3,0.3-2.6-0.4-2.9-1.7L88.1,8.9c-0.3-1.3,0.4-2.6,1.7-2.9s2.6,0.4,2.9,1.7l3.7,13.8C96.7,22.8,96,24.1,94.7,24.4z"/>
			<path class="st0" d="M47,19c0,2.1-1.7,3.8-3.8,3.8s-3.8-1.7-3.8-3.8s1.7-3.8,3.8-3.8C45.3,15.2,47,16.9,47,19z M49,25.4h7.6
				L52.2,9c-0.7-2.6-3.1-4.6-6-4.6c-0.7,0-1.5,0.1-2.1,0.4l-9.4,3.4h9.7l1.7,6.2c-1.6-1.4-3.7-2.2-6-2.2c-1.7,0-3.3,0.4-4.7,1.2
				c-1.1,0.6-2,1.5-2.7,2.5c-0.5,0.9-0.9,2-0.9,3.1s0.3,2.2,0.9,3.1c0.6,1.1,1.6,1.9,2.7,2.5c1.4,0.8,3,1.2,4.7,1.2
				c3.3,0,6.2-1.6,8-4.1L49,25.4L49,25.4z"/>
		</g>
	</g>
</g>
</svg>
