<?xml version="1.0" encoding="utf-8"?>
<!-- Generator: $$$/GeneralStr/196=Adobe Illustrator 27.6.0, SVG Export Plug-In . SVG Version: 6.00 Build 0)  -->
<svg version="1.1" id="图层_1" xmlns="http://www.w3.org/2000/svg" xmlns:xlink="http://www.w3.org/1999/xlink" x="0px" y="0px"
	 viewBox="0 0 42 24" style="enable-background:new 0 0 42 24;" xml:space="preserve">
<g id="XMLID_00000162343900334302694050000008893716733209891234_">
	<g>
		<polygon points="40.7,4.9 37.2,17.9 30.7,17.9 34.2,4.9 		"/>
		<path d="M26,4.9h6.5c-0.7,2.6-1.4,5.2-2.1,7.8c-0.3,1.3-0.7,2.6-1.1,3.9c-0.4,1.3-0.8,2.6-1.5,3.8c-0.7,1.2-1.6,2.1-2.9,2.7
			c-0.5,0.2-1,0.4-1.6,0.5c-0.8,0.2-1.6,0.2-2.4,0.3C19,24,14.8,24,12.8,24l1.2-4.5c0.9,0,1.8,0,2.7,0c0.9,0,1.8-0.1,2.7-0.3
			c0.9-0.2,1.7-0.6,2.3-1.4c0.6-0.7,1-1.6,1.3-2.4c0.6-1.5,1.2-3.7,1.6-5.2C25.1,8.4,25.6,6.7,26,4.9z"/>
		<path d="M25.7,0c-0.7,2.5-1.4,5.1-2,7.6c-0.5,1.8-1,3.5-1.5,5.3c-0.2,0.8-0.5,1.5-0.8,2.3c-0.2,0.6-0.5,1.1-1,1.6
			c-0.4,0.3-0.8,0.5-1.2,0.7c-0.6,0.2-1.2,0.3-1.8,0.3c-0.9,0.1-1.8,0.1-2.7,0.1c-2.1,0-5.8,0-7.9,0c-0.7,0-1.5,0-2.2,0
			c-0.5,0-1.1,0-1.6-0.1c-0.4,0-0.7,0-1.1-0.1c-0.2-0.1-0.5-0.1-0.7-0.2c-0.8-0.3-1.1-1-1.1-1.8c0-0.5,0.1-0.9,0.2-1.3
			c0.1-0.6,0.3-1.2,0.5-1.8c0.3-1.2,0.9-3.3,1.3-4.5c0.3-0.9,0.8-1.8,1.6-2.3c0.5-0.3,1-0.5,1.5-0.6C5.5,5.1,5.9,5,6.3,5
			c0.7,0,1.4-0.1,2.1-0.1c1,0,2,0,3,0h2.5h2.5l-0.9,3.3c-1.5,0-2.9,0-4.4,0c-0.4,0-0.9,0-1.3,0c-0.2,0-0.3,0-0.4,0.1
			C9.1,8.3,9,8.4,8.9,8.6C8.8,8.9,8.7,9.1,8.6,9.4c-0.1,0.4-0.2,0.8-0.4,1.2c-0.2,0.6-0.3,1.3-0.5,1.9c-0.1,0.2-0.1,0.5-0.2,0.7
			c0,0.2-0.1,0.3-0.1,0.5c0,0.2,0,0.4,0.1,0.6c0.1,0.2,0.3,0.2,0.5,0.2c0.2,0,0.4,0,0.6,0c0.3,0,0.7,0,1,0c0.9,0,1.8,0,2.8,0
			c0.4,0,0.9,0,1.3,0c0.3,0,0.6,0,0.9-0.1c0.2-0.1,0.4-0.1,0.5-0.3c0.1-0.1,0.2-0.2,0.2-0.4c0.1-0.4,0.2-0.7,0.4-1.1
			c0.4-1.4,0.8-2.8,1.2-4.2l1.1-4.2L19.2,0H25.7z"/>
	</g>
	<g>
	</g>
</g>
</svg>
