<?xml version="1.0" encoding="utf-8"?>
<!-- Generator: $$$/GeneralStr/196=Adobe Illustrator 27.6.0, SVG Export Plug-In . SVG Version: 6.00 Build 0)  -->
<svg version="1.1" id="图层_1" xmlns="http://www.w3.org/2000/svg" xmlns:xlink="http://www.w3.org/1999/xlink" x="0px" y="0px"
	 viewBox="0 0 72 24" style="enable-background:new 0 0 72 24;" xml:space="preserve">
<style type="text/css">
	.st0{fill-rule:evenodd;clip-rule:evenodd;fill:#111111;}
	.st1{fill:#FFFFFF;filter:url(#Adobe_OpacityMaskFilter);}
	.st2{mask:url(#mask0_00000183227284932900014600000004865777653080897970_);}
</style>
<path class="st0" d="M26.2,9.1c1.8,0,2.6-0.3,2.6-0.9V5.2c0-0.6-0.8-0.9-2.6-0.9h-3.8c-1.8,0-2.6,0.3-2.6,0.9v3.1
	c0,0.6,0.8,0.9,2.6,0.9H26.2z M26.2,10.6h-3.8c-3.2,0-4.8-0.8-4.8-2.5V5.3c0-1.7,1.6-2.5,4.8-2.5h3.8c3.2,0,4.8,0.8,4.8,2.5v2.8
	C31,9.8,29.4,10.6,26.2,10.6z"/>
<path class="st0" d="M67.2,9.1h-3.8c-1.8,0-2.6-0.3-2.6-0.9V5.2c0-0.6,0.8-0.9,2.6-0.9h3.8c1.8,0,2.6,0.3,2.6,0.9v3.1
	C69.8,8.8,69,9.1,67.2,9.1z M67.2,10.6c3.2,0,4.8-0.8,4.8-2.5V5.3c0-1.7-1.6-2.5-4.8-2.5h-3.8c-3.2,0-4.8,0.8-4.8,2.5v2.8
	c0,1.7,1.6,2.5,4.8,2.5H67.2z"/>
<path class="st0" d="M15.4,8.1v-2c0-0.4-0.3-0.6-0.8-0.6H9.9c-0.4,0-0.8,0.4-0.8,0.8c0,0.4,0.3,0.8,0.8,0.8h3.2v1.1
	c0,0.3-0.4,0.6-1.1,0.8c-0.6,0.1-1,0.2-1.5,0.2H5.3c-2,0-3.1-0.3-3.1-1v-5c0-0.7,1.2-1,3.7-1h1.4c0.6,0,0.8-0.2,0.8-0.7
	c0-0.5-0.3-0.7-0.8-0.7h-2C4.1,0.7,3,0.8,1.9,1.1C0.8,1.5,0,2.2,0,3.1v5c0,0.9,0.6,1.6,1.9,2c0.9,0.3,2.1,0.5,3.4,0.5h5.2
	c1.3,0,2.3-0.2,3.2-0.5C14.8,9.6,15.4,9,15.4,8.1z"/>
<path class="st0" d="M46.5,4.5c0,0.8-1,1-3,1h-8V2.1h8c2,0,3,0.2,3,1V4.5z M46.8,1.1c-0.9-0.3-2-0.4-3.3-0.4h-9.7
	c-0.4,0-0.6,0.3-0.6,0.6v8.6c0,0.4,0.3,0.7,0.8,0.7h0.7c0.5,0,0.8-0.2,0.8-0.7V7h8c1.4,0,2.4-0.1,3.4-0.5c1.2-0.5,1.9-1.2,1.9-2.2
	V2.9C48.8,2.1,48.1,1.5,46.8,1.1z"/>
<path class="st0" d="M56.3,2.8c-2,0-2.8,0-4,0.4c-1.1,0.4-1.6,1.2-1.6,2V10c0,0.4,0.3,0.6,0.8,0.6h0.6c0.5,0,0.8-0.2,0.8-0.6V5.2
	c0-0.7,0.8-1,2.5-1h0.9c0.5,0,0.8-0.2,0.8-0.7C57.1,3,56.8,2.8,56.3,2.8z"/>
<defs>
	<filter id="Adobe_OpacityMaskFilter" filterUnits="userSpaceOnUse" x="0" y="13" width="72" height="10.1">
		<feColorMatrix  type="matrix" values="1 0 0 0 0  0 1 0 0 0  0 0 1 0 0  0 0 0 1 0"/>
	</filter>
</defs>
<mask maskUnits="userSpaceOnUse" x="0" y="13" width="72" height="10.1" id="mask0_00000183227284932900014600000004865777653080897970_">
	<path class="st1" d="M0,23.2h72V0.7H0V23.2z"/>
</mask>
<g class="st2">
	<path class="st0" d="M0,23.2h15.6V13H0V23.2z"/>
	<path class="st0" d="M18.8,23.2h15.6V13H18.8V23.2z"/>
	<path class="st0" d="M37.6,23.2h15.6V13H37.6V23.2z"/>
	<path class="st0" d="M56.4,23.2H72V13H56.4V23.2z"/>
</g>
</svg>
