<?xml version="1.0" encoding="utf-8"?>
<!-- Generator: $$$/GeneralStr/196=Adobe Illustrator 27.6.0, SVG Export Plug-In . SVG Version: 6.00 Build 0)  -->
<svg version="1.1" id="图层_1" xmlns="http://www.w3.org/2000/svg" xmlns:xlink="http://www.w3.org/1999/xlink" x="0px" y="0px"
	 viewBox="0 0 72 24" style="enable-background:new 0 0 72 24;" xml:space="preserve">
<style type="text/css">
	.st0{fill:#FFFFFF;filter:url(#Adobe_OpacityMaskFilter);}
	.st1{mask:url(#mask0_00000116941900972960422440000016527493998210337460_);}
	.st2{fill:#0097D6;}
</style>
<defs>
	<filter id="Adobe_OpacityMaskFilter" filterUnits="userSpaceOnUse" x="0" y="0.7" width="72" height="22.5">
		<feColorMatrix  type="matrix" values="1 0 0 0 0  0 1 0 0 0  0 0 1 0 0  0 0 0 1 0"/>
	</filter>
</defs>
<mask maskUnits="userSpaceOnUse" x="0" y="0.7" width="72" height="22.5" id="mask0_00000116941900972960422440000016527493998210337460_">
	<path class="st0" d="M0,23.2h72V0.7H0V23.2z"/>
</mask>
<g class="st1">
	<g id="XMLID_00000179621649984010297730000008169560496270468004_">
		<g>
			<rect x="56.4" y="13" class="st2" width="15.6" height="10.1"/>
			<path class="st2" d="M72,5.3v2.8c0,1.7-1.6,2.5-4.8,2.5h-3.8c-3.2,0-4.8-0.8-4.8-2.5V5.3c0-1.7,1.6-2.5,4.8-2.5h3.8
				C70.4,2.8,72,3.6,72,5.3z M69.8,8.2V5.2c0-0.6-0.8-0.9-2.6-0.9h-3.8c-1.8,0-2.6,0.3-2.6,0.9v3.1c0,0.6,0.8,0.9,2.6,0.9h3.8
				C69,9.1,69.8,8.8,69.8,8.2z"/>
			<path class="st2" d="M57.1,3.5c0,0.5-0.3,0.7-0.8,0.7h-0.9c-1.6,0-2.5,0.3-2.5,1V10c0,0.4-0.3,0.6-0.8,0.6h-0.6
				c-0.5,0-0.8-0.2-0.8-0.6V5.2c0-0.7,0.5-1.5,1.6-2c1.2-0.5,2-0.4,4-0.4C56.8,2.8,57.1,3,57.1,3.5z"/>
			<rect x="37.6" y="13" class="st2" width="15.6" height="10.1"/>
			<path class="st2" d="M48.8,2.9v1.5c0,1-0.6,1.7-1.9,2.2c-1,0.3-2,0.5-3.4,0.5h-8v2.9c0,0.4-0.3,0.7-0.8,0.7H34
				c-0.5,0-0.8-0.2-0.8-0.7V1.3c0-0.4,0.3-0.6,0.7-0.6h9.6c1.3,0,2.4,0.1,3.3,0.4C48.1,1.5,48.8,2.1,48.8,2.9z M46.5,4.5V3.2
				c0-0.8-1-1-3-1h-8v3.4h8C45.5,5.6,46.5,5.3,46.5,4.5z"/>
			<rect x="18.8" y="13" class="st2" width="15.6" height="10.1"/>
			<path class="st2" d="M31,5.3v2.8c0,1.7-1.6,2.5-4.8,2.5h-3.8c-3.2,0-4.8-0.8-4.8-2.5V5.3c0-1.7,1.6-2.5,4.8-2.5h3.8
				C29.4,2.8,31,3.6,31,5.3z M28.8,8.2V5.2c0-0.6-0.8-0.9-2.6-0.9h-3.8c-1.8,0-2.6,0.3-2.6,0.9v3.1c0,0.6,0.9,0.9,2.6,0.9h3.8
				C28,9.1,28.8,8.8,28.8,8.2z"/>
			<rect y="13" class="st2" width="15.6" height="10.1"/>
			<path class="st2" d="M15.4,6.1v2c0,0.9-0.6,1.6-1.7,2c-0.9,0.3-1.9,0.5-3.2,0.5H5.3c-1.4,0-2.5-0.2-3.4-0.5C0.6,9.7,0,9,0,8.1v-5
				c0-0.9,0.8-1.6,1.9-2c1-0.3,2.2-0.5,3.4-0.5h2.1c0.6,0,0.8,0.2,0.8,0.7S7.9,2.1,7.4,2.1H5.9c-2.4,0-3.7,0.3-3.7,1v5
				c0,0.7,1,1,3.1,1h5.1c0.5,0,1,0,1.5-0.2c0.7-0.2,1.1-0.5,1.1-0.8V7.1H9.9c-0.4,0-0.8-0.4-0.8-0.8c0-0.4,0.3-0.8,0.8-0.8h4.7
				C15.1,5.5,15.4,5.7,15.4,6.1z"/>
		</g>
		<g>
		</g>
	</g>
</g>
</svg>
