<svg width="758" height="104" viewBox="0 0 758 104" fill="black" xmlns="http://www.w3.org/2000/svg">
    <g clip-path="url(#clip0_32_3061)">
        <path
            d="M255.25 101.29H240.415C239.47 101.29 238.615 100.905 237.995 100.285C237.375 99.6651 236.99 98.8101 236.99 97.8651V8.50508C236.99 7.56008 237.375 6.70508 237.995 6.08508C238.615 5.46508 239.47 5.08008 240.415 5.08008H255.25C256.175 5.08008 257.01 5.44508 257.625 6.04008C258.24 6.63508 258.67 7.53508 258.67 8.50508V97.8701C258.67 98.8151 258.285 99.6701 257.665 100.29C257.045 100.91 256.19 101.295 255.245 101.295L255.25 101.29Z"
            fill="black" />
        <path
            d="M672.14 44.0898C668.025 41.4098 658.625 39.4598 651.99 39.3248C644.57 39.1798 635.695 41.8048 635.695 41.8048C635.695 41.8048 635.745 36.6648 635.935 31.7448C636.23 23.6098 648.095 21.8048 654.16 21.8648C660.295 21.9248 667.2 23.7048 671.33 24.9598C673.25 25.5498 675.19 24.2148 675.355 22.2148L676.17 12.2298C676.255 10.8748 675.485 9.58485 674.205 9.06985C668.165 6.65485 660.755 5.43985 652.83 5.35985C648.55 5.31985 640.705 4.80985 632.75 8.08485C626.875 10.5248 617.535 16.6398 617.425 27.8448C617.315 38.7648 617.245 46.1848 617.145 55.9598C617.02 68.3748 617.045 65.9499 616.95 75.8699C616.895 81.3649 619.22 91.7348 625.45 96.5048C633.455 102.65 640.87 103.225 648.29 103.295C656.355 103.375 661.92 103.285 668.735 99.7148C677.415 95.1598 681.07 86.2798 681.38 76.7198C681.655 70.3699 681.47 67.5848 681.165 62.3748C680.93 57.4498 681.715 50.3198 672.14 44.0898ZM660.555 82.5098C658.17 85.6248 652.74 86.2849 648.6 86.2449C644.39 86.2048 640.33 85.5899 637.65 82.2849C634.9 79.0449 635.435 75.1998 635.49 70.0598C635.555 63.7098 635.59 59.7848 635.59 59.7848C635.59 59.7848 642.685 56.7848 649.32 57.0648C653.245 57.2448 657.665 57.2898 660.35 60.3148C663.035 63.2698 663.22 65.8398 663.165 71.4048C663.115 76.3998 663.015 79.3949 660.555 82.5098Z"
            fill="black" />
        <path
            d="M606.045 67.345C606.09 62.78 603.745 54.55 595.635 51.825C593.645 51.165 592.505 50.795 591.58 50.785C593.87 49.95 596.095 48.76 599.12 45.935C602.075 43.11 603.545 38.63 603.6 32.99C603.64 28.995 603.615 31.565 603.645 28.35C603.725 20.285 600.225 13.26 593.2 9.33504C587.665 6.28504 580.04 5.21004 573.115 5.14004C558.985 5.00004 549.1 8.75504 544.935 11.21C543.93 11.84 543.35 12.905 543.41 14.12L544.095 24.19C544.215 26.33 546.415 27.71 548.42 26.875C553.15 24.925 561.24 22.08 568.95 22.01C572.66 21.975 578.01 22.17 580.71 23.34C583.765 24.585 585.665 27.245 585.64 30.025C585.68 33.095 585.685 32.595 585.665 34.52C585.625 38.73 584.115 39.715 582.745 40.915C580.8 42.61 577.23 43.075 572.94 43.53C570.225 43.86 563.655 44.225 558.015 44.31C556.3 44.365 554.93 45.705 554.915 47.42L554.745 57.55C554.73 59.265 556.07 60.705 557.855 60.72C562.78 60.77 569.485 60.98 574.475 61.525C581.245 62.305 587.08 64.22 587.025 69.855C586.97 75.42 587.05 67.355 586.965 75.705C586.88 84.055 579.59 85.195 568.745 85.085C561.68 85.015 553.575 81.865 548.815 79.68C546.825 78.805 544.53 80.135 544.365 82.275L543.475 93.04C543.39 94.18 543.95 95.33 544.875 95.98C548.35 98.225 557.435 103.17 570.28 103.295C579.485 103.385 591.065 101.43 597.175 97.065C599.33 95.515 605.815 89.515 605.905 80.38C605.95 75.815 605.915 79.45 605.97 73.67C606.025 68.175 605.995 71.315 606.035 67.32L606.045 67.345Z"
            fill="black" />
        <path
            d="M523.92 30.2449C517.745 26.9699 510.625 25.3299 502.63 25.2549C491.5 25.1449 480.71 26.4649 474.33 29.4699C473.185 30.0299 472.455 31.2349 472.515 32.5199L472.98 43.0849C473.1 45.2249 475.23 46.6749 477.235 45.9799C482.465 44.0349 491.625 41.4849 500.33 41.4249C506.18 41.4099 509.175 42.0099 511.23 43.1749C513.29 44.3349 514.13 45.6299 514.1 48.6249C514.075 51.1249 514.035 55.1899 514.035 55.1899C514.035 55.1899 503.91 54.3749 498.985 54.6149C492.275 54.9749 485.915 55.6999 478.885 59.1949C473.075 62.0649 468.395 66.2299 468.305 75.2199C468.265 79.2849 468.255 80.4299 468.21 84.7099C468.15 90.9899 471.95 96.0249 477.205 98.7149C482.955 101.625 489.435 103.19 501.425 103.31C517.835 103.475 528.11 96.7249 531.42 94.1149C532.21 93.5499 532.65 92.6299 532.66 91.6299L533.09 48.3149C533.105 39.4649 530.095 33.4399 523.92 30.2399V30.2449ZM510.83 83.7099C507.31 86.0999 502.025 86.4749 497.885 86.5099C493.675 86.5399 488.76 85.4899 486.925 83.4749C485.3 81.7449 485.95 81.2549 485.975 78.7549C486.01 75.1149 487.61 72.3499 491.335 70.9599C495.06 69.4999 500.41 69.5499 503.765 69.5149C509.83 69.4299 514.105 70.2599 514.105 70.2599L514.07 73.5399C514.005 79.9599 514.35 81.3199 510.83 83.7149V83.7099Z"
            fill="black" />
        <path
            d="M389.87 56.1701C380.745 55.0101 372.27 53.4251 369.93 52.0451C367.59 50.5951 367.925 45.7451 369.365 44.0451C371.46 41.6401 380.73 42.2301 386.075 42.8551C392.845 43.6351 398.185 45.0451 401.53 46.1501C403.52 46.8101 405.535 45.4751 405.77 43.4101L407.015 33.1451C407.175 31.6501 406.33 30.2101 404.91 29.7001C397.515 26.9851 391.965 25.3601 379.905 25.2401C374.625 25.1901 368.555 25.7001 363.04 27.6401C354.23 30.6951 351.675 36.8051 351.05 42.2201C350.74 44.9301 350.51 46.2801 350.475 49.7801C350.415 55.6301 351.585 60.3551 354.835 63.4551C358.085 66.6251 365.27 69.1251 376.245 70.7301C386.01 72.1101 388.28 73.2751 389.98 74.5051C392.32 76.2401 392.045 82.0901 390.46 83.4301C387.87 85.6151 381.87 86.0551 374.595 85.4851C367.32 84.9151 359.635 82.6251 355.085 81.0801C353.025 80.3451 350.87 81.7501 350.705 83.8901L349.885 94.5151C349.8 95.8001 350.43 97.0201 351.565 97.6001C357.315 100.725 369.92 103.205 379.84 103.305C390.76 103.415 399.34 101.285 404.09 97.2651C409.485 92.7501 410.185 87.0501 410.26 79.6301C410.315 73.9951 410.455 67.0701 406.855 63.2551C403.32 59.7251 399.56 57.4001 389.87 56.1651V56.1701Z"
            fill="black" />
        <path
            d="M455.495 84.1101C449.73 86.1851 446.005 86.1851 443.625 83.9601C442.85 83.1651 442.505 81.8801 442.535 78.8101L442.935 45.9301L454.925 46.0501C456.78 46.0701 458.295 44.5851 458.31 42.7301L458.49 31.7401C458.51 29.9551 457.095 28.4451 455.24 28.4251L442.96 28.3051L442.95 14.1951C442.97 12.4101 441.485 10.9001 439.7 10.8801L425.29 10.7351C423.505 10.7151 421.995 12.2001 421.955 15.8401L422.26 84.2401C422.23 87.0951 421.595 93.5801 426.405 97.8401C431.215 102.1 437.91 103.525 444.685 103.295C450.045 103.115 453.675 102.635 457.035 101.47C458.555 100.94 459.765 99.7851 459.71 98.1401L459.32 87.2901C459.195 85.2901 457.34 83.4501 455.5 84.1101H455.495Z"
            fill="black" />
        <path
            d="M74.24 33.5C71.755 30.185 68.44 25.535 65.13 21.025C72.735 16.205 85.65 4.995 89.545 0C91.28 1.555 94.195 3.825 97.73 6.94C93.165 15.57 82.69 27.71 74.24 33.505V33.5ZM73.565 101.85L66.18 91.49L56.09 100.135C52.985 95.765 48.35 90.475 44.545 86.03L44.515 89.18C44.435 97.365 37.68 101.005 30.055 100.93L20.75 100.84L20.88 87.55C17.895 92 15.06 95.96 12.86 99.015L0.5 89.72C4.035 86.255 9.64 78.335 12.835 73.47L8.08 73.425L8.53 49.08L63.375 49.625V50.185L62.925 73.97L55.02 73.89C57.78 77.625 60.825 80.945 63.735 84.19C69.57 81.17 86.005 67.9 95.415 57.36C99.44 60.83 100.205 61.185 105.27 65.575C93.675 84.91 73.565 101.85 73.565 101.85ZM67.05 46.095L4.86 45.48L4.955 35.825L28.81 36.06L28.835 33.75L44.225 33.905L44.2 36.215L67.075 36.44L66.98 46.095H67.05ZM91.08 28.63C94.75 32.515 97.525 35.06 99.46 37.11C93.56 46.355 82.315 58.63 73.01 65.535C71.285 63.14 66.525 56.445 63.28 52.145C69.615 48.22 82.095 38.62 91.08 28.635V28.63ZM64.8 32.775L7.505 32.205L7.81 1.215L65.105 1.785L64.8 32.775ZM25.385 84.79C26.855 84.805 29.175 83.5 29.22 79.23L29.275 73.705L14.515 73.56L25.285 81.155C25.285 81.155 23.65 83.66 23.01 84.7C22.94 84.7 23.92 84.78 25.39 84.795L25.385 84.79ZM20.83 8.135L20.79 12.4L51.57 12.705L51.61 8.44L20.83 8.135ZM51.455 24.32L51.5 19.915L20.72 19.61L20.675 24.015L51.455 24.32ZM22.665 62.935L49.04 63.195L49.095 57.6L22.72 57.34L22.665 62.935ZM44.58 82.25L54.385 73.95L44.66 73.855L44.575 82.25H44.58Z"
            fill="black" />
        <path
            d="M185.765 54.405L150.435 54.055L150.13 84.625L185.46 84.975L185.765 54.405ZM133.045 100.48L133.46 58.365C130.35 61.485 121.195 67.76 115.285 70.99L108.6 53.575C122.31 46.995 139.825 30.165 144.765 18.67L116.85 18.395L116.985 4.61499L208.14 5.51999L208.005 19.3L161.975 18.845C160.385 23.795 154.115 35.49 150.57 40.35L203.39 40.875L202.795 101.11L133.05 100.42V100.49L133.045 100.48Z"
            fill="black" />
        <path
            d="M317.325 97.78C317.305 99.565 318.72 101.22 320.575 101.24L334.885 101.215C336.67 101.235 338.185 99.68 338.2 97.82"
            fill="black" />
        <path
            d="M332.125 33.4449C327.51 29.3999 320.86 27.6999 315.19 26.3999C310.655 25.3599 297.745 25.4449 291.705 27.0949C281.07 29.9999 275.585 33.4999 273.57 35.3349C272.92 35.9699 272.485 36.8249 272.475 37.7499L272.46 97.6999C272.46 99.5899 273.99 101.125 275.885 101.125H289.88C291.77 101.125 293.305 99.5949 293.305 97.6999C293.305 97.6999 293.27 51.7099 293.27 49.9449C293.27 44.8049 299.475 43.3649 306.04 43.3649C311.04 43.3649 317.32 44.8049 317.32 50.1849C317.32 51.9949 317.295 97.7549 317.295 97.7549C317.295 99.6449 318.83 101.18 320.72 101.18H334.81C336.7 101.18 338.235 99.6499 338.235 97.7549C338.235 97.7549 338.305 50.6949 338.305 47.7349C338.305 39.6599 336.35 37.1349 332.14 33.4449H332.125Z"
            fill="black" />
        <path
            d="M757.16 34.385C757.295 20.4 752.435 14.925 747.695 11.595C741.995 7.55001 732.815 5.24001 724.795 5.13501C716.795 5.23501 708.1 7.55001 702.4 11.595C697.66 14.925 692.8 20.4 692.935 34.385C693.01 42.03 693.01 66.465 692.935 74.07C692.8 88.055 697.66 93.53 702.4 96.86C708.1 100.905 717.28 103.215 725.3 103.32C733.3 103.22 741.995 100.905 747.695 96.86C752.435 93.53 757.295 88.055 757.16 74.07C757.085 66.46 757.085 42.025 757.16 34.385ZM735.345 83.615C733.22 85.61 728.415 86.56 725.05 86.615C721.685 86.56 716.88 85.605 714.75 83.615C712.385 81.38 712.195 79.31 712.275 71.245C712.315 67.02 712.315 41.385 712.275 37.205C712.195 29.14 712.385 27.07 714.75 24.835C716.875 22.84 721.68 21.89 725.045 21.835C728.41 21.89 733.215 22.845 735.345 24.835C737.71 27.07 737.9 29.14 737.82 37.205C737.78 41.38 737.78 67.02 737.82 71.245C737.9 79.31 737.71 81.38 735.345 83.615Z"
            fill="black" />
    </g>
    <defs>

    </defs>
</svg>