<?xml version="1.0" encoding="utf-8"?>
<!-- Generator: $$$/GeneralStr/196=Adobe Illustrator 27.6.0, SVG Export Plug-In . SVG Version: 6.00 Build 0)  -->
<svg version="1.1" id="图层_1" xmlns="http://www.w3.org/2000/svg" xmlns:xlink="http://www.w3.org/1999/xlink" x="0px" y="0px"
	 viewBox="0 0 171.3 42" style="enable-background:new 0 0 171.3 42;" xml:space="preserve">
<style type="text/css">
	.st0{fill-rule:evenodd;clip-rule:evenodd;}
</style>
<g id="图层_2_00000132080577294048637290000005190035746563735714_">
	<g id="图层_1-2">
		<rect width="6.8" height="6.8"/>
		<rect y="13.6" width="6.8" height="27.8"/>
		<path class="st0" d="M27.1,20.7c0-7.7,6.2-13.9,13.9-13.9S54.8,13,54.8,20.7h6.8C61.6,9.3,52.4,0,40.9,0S20.3,9.3,20.3,20.7
			c0,11.4,9.3,20.7,20.7,20.7h0v-6.8l0,0C33.3,34.6,27.1,28.4,27.1,20.7z"/>
		<path class="st0" d="M95.8,0C84.4,0,75.1,9.3,75.1,20.7c0,11.4,9.3,20.7,20.7,20.7s20.7-9.3,20.7-20.7c0,0,0,0,0,0
			C116.5,9.3,107.2,0,95.8,0z M95.8,34.6L95.8,34.6c-7.7,0-13.9-6.2-13.9-13.9c0-7.7,6.2-13.9,13.9-13.9c7.7,0,13.9,6.2,13.9,13.9
			C109.7,28.4,103.4,34.6,95.8,34.6C95.8,34.6,95.8,34.6,95.8,34.6z"/>
		<path class="st0" d="M171.1,17.5c-1.7-11.3-12.3-19-23.6-17.3c-10.1,1.6-17.5,10.2-17.5,20.4v0l0,0c0,11.4,9.3,20.7,20.7,20.7
			s20.7-9.3,20.7-20.7C171.3,19.6,171.2,18.6,171.1,17.5z M150.6,34.6L150.6,34.6c-7.7,0-13.9-6.2-13.9-13.9s6.2-13.9,13.9-13.9
			c7.7,0,13.9,6.2,13.9,13.9C164.5,28.4,158.3,34.6,150.6,34.6C150.6,34.6,150.6,34.6,150.6,34.6z"/>
		<rect x="47.9" y="19.2" transform="matrix(0.7089 -0.7053 0.7053 0.7089 -7.0034 45.2743)" width="6.8" height="23.9"/>
	</g>
</g>
</svg>
