<?xml version="1.0" encoding="utf-8"?>
<!-- Generator: $$$/GeneralStr/196=Adobe Illustrator 27.6.0, SVG Export Plug-In . SVG Version: 6.00 Build 0)  -->
<svg version="1.1" id="图层_1" xmlns="http://www.w3.org/2000/svg" xmlns:xlink="http://www.w3.org/1999/xlink" x="0px" y="0px"
	 viewBox="0 0 171.3 42" style="enable-background:new 0 0 171.3 42;" xml:space="preserve">
<style type="text/css">
	.st0{fill:#FFFFFF;}
</style>
<g id="图层_1-2">
	<g id="XMLID_00000074412796186432860230000010555889616412012195_">
		<g>
			<path class="st0" d="M171.1,17.5c0.2,1,0.2,2.1,0.2,3.1c0,11.4-9.3,20.7-20.7,20.7c-5.7,0-10.9-2.3-14.6-6.1
				c-3.7-3.7-6.1-8.9-6.1-14.6v0c0-10.2,7.4-18.9,17.5-20.4C158.8-1.5,169.3,6.2,171.1,17.5z M150.6,34.6c7.7,0,13.9-6.2,13.9-13.9
				s-6.2-13.9-13.9-13.9c-7.7,0-13.9,6.2-13.9,13.9C136.7,28.4,142.9,34.6,150.6,34.6z"/>
			<path class="st0" d="M116.5,20.7C116.5,20.7,116.5,20.7,116.5,20.7c0,11.4-9.3,20.7-20.7,20.7c-11.4,0-20.7-9.3-20.7-20.7
				C75.1,9.3,84.3,0,95.8,0C107.2,0,116.5,9.3,116.5,20.7z M109.7,20.7c0-7.7-6.2-13.9-13.9-13.9S81.9,13,81.9,20.7
				c0,7.7,6.2,13.9,13.9,13.9S109.7,28.4,109.7,20.7z"/>
			<rect x="48" y="19.2" transform="matrix(0.709 -0.7052 0.7052 0.709 -7.0047 45.2704)" class="st0" width="6.8" height="23.9"/>
			<path class="st0" d="M61.6,20.7h-6.8C54.8,13,48.6,6.8,41,6.8S27.1,13,27.1,20.7c0,3.8,1.6,7.3,4.1,9.8c2.5,2.5,6,4.1,9.8,4.1
				v6.8c-11.4,0-20.7-9.3-20.7-20.7S29.5,0,40.9,0C52.4,0,61.6,9.3,61.6,20.7z"/>
			<rect y="13.6" class="st0" width="6.8" height="27.8"/>
			<rect class="st0" width="6.8" height="6.8"/>
		</g>
		<g>
		</g>
	</g>
</g>
</svg>
