<?xml version="1.0" encoding="UTF-8" ?>
<!DOCTYPE svg PUBLIC "-//W3C//DTD SVG 1.1//EN" "http://www.w3.org/Graphics/SVG/1.1/DTD/svg11.dtd">
<svg width="1246pt" height="341pt" viewBox="0 0 1246 341" version="1.1" xmlns="http://www.w3.org/2000/svg">

<g id="#ffffffff">
<path fill="#ffffff" opacity="1.00" d=" M 128.03 70.00 C 136.35 69.74 144.68 69.95 153.00 69.88 C 158.81 69.96 164.65 69.59 170.44 70.32 C 170.37 125.23 170.37 180.14 170.44 235.05 C 169.99 238.33 173.15 240.31 176.07 240.28 C 220.23 240.36 264.39 240.22 308.54 240.35 C 308.51 249.05 308.64 257.75 308.49 266.46 C 251.65 266.41 194.81 266.44 137.97 266.44 C 134.04 266.54 129.90 264.28 128.61 260.44 C 127.85 257.35 127.87 254.15 127.88 250.99 C 128.00 190.66 127.69 130.32 128.03 70.00 Z" />
<path fill="#ffffff" opacity="1.00" d=" M 1086.69 117.80 C 1102.01 117.45 1117.41 117.50 1132.74 117.80 C 1105.02 141.37 1077.60 165.32 1049.96 188.99 C 1068.29 205.70 1087.52 221.45 1106.15 237.85 C 1117.06 247.07 1127.66 256.67 1138.78 265.63 C 1124.84 265.97 1110.89 265.66 1096.95 265.80 C 1095.06 265.66 1092.78 266.21 1091.39 264.61 C 1069.84 246.22 1048.74 227.30 1026.99 209.15 C 1004.63 227.99 982.85 247.53 960.45 266.32 C 945.33 266.55 930.19 266.43 915.06 266.38 C 940.98 243.50 967.36 221.14 993.47 198.47 C 996.82 195.07 1001.19 192.65 1003.93 188.68 C 993.60 180.49 983.96 171.49 973.82 163.08 C 958.99 150.30 944.14 137.53 929.33 124.74 C 926.71 122.49 923.81 120.45 921.84 117.57 C 936.89 117.46 951.96 117.36 967.00 117.60 C 985.58 133.44 1004.02 149.50 1022.47 165.50 C 1024.02 166.59 1025.98 169.97 1028.00 167.98 C 1047.65 151.36 1067.11 134.50 1086.69 117.80 Z" />
<path fill="#ffffff" opacity="1.00" d=" M 333.73 117.66 C 345.90 117.59 358.06 117.52 370.22 117.70 C 370.21 147.80 370.22 177.90 370.22 208.00 C 370.25 213.30 370.11 218.62 370.54 223.92 C 371.26 229.20 373.17 235.11 378.30 237.65 C 383.22 239.81 388.63 240.76 394.00 240.61 C 422.02 240.58 450.04 240.68 478.06 240.56 C 483.95 240.20 490.52 239.25 494.93 234.94 C 498.41 230.39 498.64 224.35 499.41 218.88 C 499.66 185.14 499.41 151.39 499.54 117.64 C 511.63 117.61 523.72 117.52 535.81 117.69 C 535.69 147.13 535.79 176.57 535.76 206.00 C 535.67 212.69 536.04 219.46 534.64 226.05 C 532.36 238.93 528.05 252.16 518.64 261.66 C 515.72 264.88 511.31 266.49 507.02 266.44 C 458.34 266.41 409.66 266.47 360.99 266.41 C 353.20 266.18 348.29 259.47 344.42 253.56 C 337.35 241.67 334.28 227.76 333.73 214.04 C 333.69 181.91 333.69 149.79 333.73 117.66 Z" />
<path fill="#ffffff" opacity="1.00" d=" M 575.43 117.62 C 587.32 117.59 599.21 117.62 611.11 117.61 C 634.48 153.06 657.50 188.76 680.77 224.28 C 683.72 228.45 685.95 233.13 689.40 236.93 C 715.81 197.11 742.37 157.39 768.85 117.62 C 780.76 117.60 792.67 117.59 804.58 117.62 C 804.60 167.22 804.71 216.83 804.52 266.43 C 792.97 266.42 781.43 266.46 769.88 266.42 C 769.52 266.12 768.81 265.52 768.45 265.22 C 768.43 235.36 768.58 205.50 768.41 175.65 C 765.95 178.22 764.24 181.35 762.31 184.30 C 745.56 209.58 728.86 234.89 712.11 260.17 C 710.60 262.23 709.56 264.77 707.51 266.36 C 696.09 266.53 684.65 266.40 673.23 266.42 C 671.91 266.62 671.35 265.13 670.66 264.33 C 654.64 240.07 638.59 215.83 622.52 191.60 C 618.77 186.32 615.75 180.51 611.48 175.63 C 611.44 205.69 611.51 235.76 611.47 265.82 C 599.44 265.86 587.40 265.91 575.37 265.79 C 575.40 216.40 575.30 167.01 575.43 117.62 Z" />
<path fill="#ffffff" opacity="1.00" d=" M 853.44 117.85 C 865.54 117.34 877.68 117.65 889.79 117.70 C 889.61 167.29 889.83 216.89 889.68 266.48 C 877.65 266.36 865.62 266.48 853.59 266.42 C 853.32 216.90 853.62 167.37 853.44 117.85 Z" />
</g>
</svg>
