<?xml version="1.0" encoding="UTF-8" ?>
<!DOCTYPE svg PUBLIC "-//W3C//DTD SVG 1.1//EN" "http://www.w3.org/Graphics/SVG/1.1/DTD/svg11.dtd">
<svg width="1788pt" height="300pt" viewBox="0 0 1788 300" version="1.1" xmlns="http://www.w3.org/2000/svg">
<g id="#000">
<path fill="#000" opacity="1.00" d=" M 232.24 0.00 L 291.61 0.00 C 295.36 0.37 298.86 3.07 299.67 6.83 C 300.26 10.18 299.94 13.60 300.00 16.99 C 300.01 62.08 299.98 107.17 300.02 152.26 C 300.97 152.56 301.92 152.86 302.88 153.15 C 352.65 103.49 402.29 53.69 452.00 3.97 C 454.17 1.69 457.15 0.39 460.25 0.00 L 519.56 0.00 C 524.10 0.34 528.03 4.31 527.94 8.93 C 528.04 28.30 528.02 47.68 527.95 67.05 C 528.05 72.06 524.36 75.81 520.99 79.00 C 448.64 151.32 376.30 223.66 303.97 296.01 C 301.80 298.33 298.77 299.61 295.65 300.00 L 236.53 300.00 C 232.09 299.52 227.87 295.80 228.05 291.10 C 227.94 244.37 228.01 197.63 228.01 150.89 C 227.87 149.65 228.26 147.86 226.79 147.28 C 225.62 146.31 224.32 147.77 223.45 148.46 C 174.28 197.63 125.12 246.82 75.99 296.03 C 73.80 298.32 70.77 299.61 67.65 300.00 L 8.52 300.00 C 4.21 299.54 0.38 296.14 0.00 291.72 L 0.00 232.34 C 0.36 229.20 1.65 226.17 4.01 224.01 C 77.37 150.70 150.63 77.28 224.00 3.98 C 226.18 1.72 229.14 0.38 232.24 0.00 Z" />
<path fill="#000" opacity="1.00" d=" M 654.00 92.96 C 653.57 91.16 655.02 89.57 656.87 90.01 C 733.55 89.99 810.24 90.01 886.92 89.99 C 905.50 90.14 922.96 103.33 928.40 121.07 C 931.14 128.76 930.44 137.00 930.50 145.01 C 930.51 195.69 930.49 246.37 930.51 297.05 C 930.62 298.29 930.15 299.27 929.10 300.00 L 898.54 300.00 C 898.17 299.72 897.44 299.16 897.07 298.88 C 896.90 246.90 897.05 194.92 896.99 142.94 C 897.07 137.44 895.19 131.73 890.90 128.10 C 887.42 124.87 882.60 123.51 877.93 123.51 C 856.63 123.47 835.32 123.54 814.01 123.48 C 812.38 123.43 810.79 123.79 809.23 124.19 C 808.69 141.45 809.15 158.74 809.00 176.01 C 809.01 216.02 808.98 256.03 809.02 296.04 C 809.01 297.44 809.05 299.00 807.87 300.00 L 776.87 300.00 C 775.83 299.24 775.38 298.24 775.50 297.00 C 775.46 240.01 775.57 183.02 775.44 126.04 C 775.76 123.96 773.56 123.29 771.94 123.50 C 744.64 123.56 717.34 123.39 690.05 123.59 C 688.00 123.32 687.54 125.42 687.74 126.99 C 687.78 182.32 687.71 237.66 687.78 292.99 C 687.68 295.37 688.27 298.11 686.40 300.00 L 655.37 300.00 C 654.00 299.13 653.93 297.56 653.99 296.11 C 654.02 228.39 653.99 160.68 654.00 92.96 Z" />
<path fill="#000" opacity="1.00" d=" M 974.72 92.95 C 974.20 90.90 976.04 89.65 977.91 90.01 C 1047.60 89.99 1117.29 90.00 1186.99 90.01 C 1188.23 90.04 1190.36 89.99 1190.23 91.85 C 1190.50 101.22 1190.27 110.60 1190.35 119.98 C 1190.51 121.55 1189.99 123.91 1187.93 123.49 C 1130.60 123.50 1073.27 123.52 1015.93 123.48 C 1013.64 123.59 1011.23 123.15 1009.06 124.00 C 1008.19 125.16 1008.37 126.67 1008.32 128.03 C 1008.36 143.36 1008.35 158.70 1008.33 174.03 C 1008.38 175.31 1008.18 176.80 1009.19 177.81 C 1011.35 178.56 1013.70 178.17 1015.96 178.26 C 1068.98 178.22 1122.01 178.27 1175.03 178.24 C 1176.41 178.36 1178.83 178.07 1178.70 180.14 C 1179.00 186.77 1178.71 193.41 1178.81 200.04 C 1178.69 203.94 1179.27 207.94 1178.18 211.75 C 1122.79 211.76 1067.39 211.75 1012.00 211.75 C 1010.37 211.58 1008.26 212.09 1008.41 214.10 C 1008.25 225.07 1008.39 236.05 1008.34 247.03 C 1008.23 251.99 1009.64 257.18 1013.30 260.71 C 1017.26 265.04 1023.39 266.40 1029.06 266.27 C 1081.39 266.21 1133.73 266.28 1186.07 266.23 C 1187.52 266.26 1189.93 266.02 1190.20 268.04 C 1190.57 274.71 1190.22 281.40 1190.34 288.08 C 1190.21 292.06 1190.84 296.13 1189.63 300.00 L 1018.53 300.00 C 1006.33 299.40 994.25 294.15 986.07 284.97 C 978.27 276.73 974.52 265.22 974.69 253.98 C 974.71 200.30 974.66 146.62 974.72 92.95 Z" />
<path fill="#000" opacity="1.00" d=" M 1234.47 92.91 C 1234.23 91.43 1235.15 89.78 1236.86 90.05 C 1246.58 89.99 1256.32 89.89 1266.04 90.10 C 1268.23 89.92 1268.09 92.44 1268.12 93.94 C 1268.10 159.29 1268.11 224.63 1268.11 289.98 C 1268.05 293.32 1268.47 296.76 1267.40 300.00 L 1235.32 300.00 C 1233.96 297.52 1234.55 294.63 1234.45 291.95 C 1234.48 225.60 1234.43 159.25 1234.47 92.91 Z" />
<path fill="#000" opacity="1.00" d=" M 1312.31 92.07 C 1311.99 89.98 1314.57 90.00 1316.02 89.99 C 1384.02 90.02 1452.02 89.98 1520.02 90.01 C 1524.35 89.56 1528.56 93.63 1528.00 98.00 C 1527.71 100.52 1526.07 102.58 1524.45 104.40 C 1478.26 155.59 1432.10 206.81 1385.92 258.01 C 1383.69 260.66 1380.90 262.92 1379.47 266.14 C 1427.98 266.40 1476.49 266.15 1525.01 266.27 C 1526.60 266.04 1528.27 267.13 1528.04 268.92 C 1528.19 275.95 1528.02 282.98 1528.09 290.01 C 1528.03 293.35 1528.44 296.77 1527.39 300.00 L 1319.57 300.00 C 1313.35 299.98 1309.82 291.81 1314.30 287.42 C 1363.07 233.02 1412.12 178.86 1460.88 124.44 C 1459.69 123.70 1458.41 123.38 1457.04 123.49 C 1409.02 123.55 1361.00 123.45 1312.99 123.54 C 1311.77 120.50 1312.29 117.19 1312.21 114.01 C 1312.30 106.70 1312.07 99.38 1312.31 92.07 Z" />
<path fill="#000" opacity="1.00" d=" M 1574.06 90.11 C 1583.73 89.86 1593.42 90.02 1603.11 90.03 C 1604.93 89.78 1606.15 91.15 1605.84 92.97 C 1605.88 143.66 1605.87 194.36 1605.84 245.06 C 1605.69 250.04 1606.26 255.44 1609.64 259.37 C 1613.23 264.09 1619.23 266.26 1625.02 266.25 C 1666.66 266.27 1708.31 266.21 1749.95 266.27 C 1751.27 266.08 1753.58 266.77 1754.05 264.92 C 1754.36 262.29 1754.17 259.63 1754.21 256.99 C 1754.19 202.65 1754.23 148.30 1754.19 93.96 C 1754.20 92.53 1753.95 90.14 1756.04 90.12 C 1764.68 89.80 1773.34 90.12 1781.99 89.97 C 1784.05 90.11 1786.72 89.42 1788.00 91.61 L 1788.00 299.33 L 1787.44 299.47 L 1787.48 300.00 L 1615.67 300.00 C 1602.27 299.25 1589.14 292.77 1581.05 281.96 C 1574.91 274.04 1572.08 263.90 1572.20 253.96 C 1572.19 200.63 1572.22 147.29 1572.19 93.96 C 1572.20 92.52 1571.95 90.12 1574.06 90.11 Z" />
<path fill="#000" opacity="1.00" d=" M 436.81 205.04 C 439.04 203.94 441.59 204.00 444.02 203.98 C 469.06 204.08 494.11 203.89 519.14 204.07 C 524.30 204.00 528.48 208.92 527.99 213.98 C 527.97 239.67 528.06 265.36 527.95 291.05 C 528.07 295.68 524.03 299.46 519.60 300.00 L 440.47 300.00 C 436.03 299.52 431.88 295.75 432.03 291.09 C 431.94 265.37 432.02 239.65 431.99 213.93 C 431.70 210.33 433.62 206.73 436.81 205.04 Z" />
</g>
</svg>
