<?xml version="1.0" encoding="UTF-8" ?>
<!DOCTYPE svg PUBLIC "-//W3C//DTD SVG 1.1//EN" "http://www.w3.org/Graphics/SVG/1.1/DTD/svg11.dtd">
<svg width="1788pt" height="300pt" viewBox="0 0 1788 300" version="1.1" xmlns="http://www.w3.org/2000/svg">
<g id="#ff4132ff">
<path fill="#ff4132" opacity="1.00" d=" M 232.26 0.00 L 291.60 0.00 C 295.49 0.40 299.11 3.28 299.74 7.24 C 300.30 11.81 299.89 16.43 300.00 21.02 C 300.09 64.83 299.82 108.65 300.14 152.46 C 300.83 152.62 302.22 152.95 302.91 153.11 C 352.68 103.48 402.28 53.69 451.98 4.00 C 454.16 1.70 457.16 0.40 460.28 0.00 L 519.59 0.00 C 524.09 0.37 527.98 4.26 527.93 8.85 C 528.08 27.91 527.96 46.98 527.99 66.05 C 528.20 70.03 526.33 73.76 523.51 76.47 C 450.32 149.65 377.14 222.82 303.97 296.01 C 301.78 298.32 298.76 299.60 295.65 300.00 L 236.53 300.00 C 232.82 299.50 229.04 296.96 228.30 293.11 C 227.76 289.79 228.03 286.41 227.99 283.06 C 228.01 241.04 227.98 199.02 228.00 157.00 C 227.96 154.08 228.22 151.13 227.76 148.24 C 226.67 145.87 224.04 147.58 222.90 148.98 C 174.81 197.18 126.60 245.27 78.54 293.51 C 75.66 296.71 72.13 299.65 67.65 300.00 L 8.54 300.00 C 4.35 299.53 0.66 296.38 0.00 292.14 L 0.00 232.38 C 0.35 229.22 1.66 226.18 4.03 224.00 C 77.38 150.69 150.62 77.28 223.99 4.00 C 226.18 1.72 229.15 0.39 232.26 0.00 Z" />
<path fill="#ff4132" opacity="1.00" d=" M 432.03 212.93 C 431.90 207.72 436.88 203.51 441.98 204.01 C 467.32 203.99 492.67 203.99 518.01 204.01 C 523.08 203.56 528.06 207.71 527.93 212.92 C 528.08 238.63 527.96 264.35 527.99 290.06 C 528.45 295.03 524.46 299.45 519.60 300.00 L 440.48 300.00 C 436.04 299.50 431.90 295.78 432.04 291.12 C 431.95 265.06 431.97 238.99 432.03 212.93 Z" />
</g>
<g id="#000000ff">
<path fill="#000000" opacity="1.00" d=" M 654.01 92.91 C 653.63 91.10 655.08 89.61 656.90 90.01 C 731.91 89.97 806.92 90.03 881.93 89.98 C 887.69 89.83 893.55 90.13 899.06 91.98 C 917.10 97.33 930.51 115.10 930.51 133.95 C 930.49 173.65 930.51 213.35 930.50 253.04 C 930.35 268.69 930.81 284.36 930.26 300.00 L 898.15 300.00 C 897.16 298.91 896.90 297.46 896.97 296.04 C 897.03 245.02 897.00 193.99 896.99 142.97 C 897.08 137.46 895.20 131.75 890.91 128.10 C 887.19 124.62 881.97 123.42 877.00 123.49 C 858.65 123.51 840.29 123.50 821.95 123.51 C 817.69 123.52 813.38 123.17 809.19 124.11 C 808.74 178.07 809.13 232.04 808.99 286.00 C 808.91 290.67 809.40 295.39 808.45 300.00 L 776.58 300.00 C 774.87 297.67 775.59 294.67 775.47 292.00 C 775.56 237.66 775.43 183.32 775.54 128.99 C 775.40 127.37 775.74 125.56 774.85 124.11 C 773.38 123.29 771.63 123.57 770.04 123.46 C 744.35 123.53 718.66 123.52 692.96 123.47 C 691.36 123.54 689.67 123.41 688.20 124.12 C 687.41 126.66 687.79 129.37 687.73 131.99 C 687.80 186.33 687.69 240.68 687.79 295.03 C 687.85 296.75 687.32 298.39 686.78 300.00 L 654.93 300.00 C 653.45 297.23 654.08 293.99 653.98 290.99 C 654.03 224.96 653.97 158.93 654.01 92.91 Z" />
<path fill="#000000" opacity="1.00" d=" M 974.72 92.95 C 974.18 90.89 976.05 89.76 977.89 90.02 C 1043.26 89.98 1108.63 90.01 1174.00 90.00 C 1179.20 90.25 1184.51 89.43 1189.64 90.44 C 1191.10 93.99 1190.06 98.16 1190.34 101.96 C 1189.99 109.15 1191.12 116.47 1189.67 123.56 C 1130.76 123.41 1071.85 123.58 1012.95 123.47 C 1011.06 123.43 1008.15 123.43 1008.41 126.07 C 1008.26 142.39 1008.37 158.73 1008.36 175.06 C 1007.98 177.32 1009.90 178.60 1012.00 178.25 C 1063.98 178.25 1115.97 178.25 1167.96 178.24 C 1171.40 178.33 1174.95 177.83 1178.33 178.75 C 1179.39 183.74 1178.56 188.90 1178.81 193.97 C 1178.55 199.90 1179.47 205.95 1178.17 211.80 C 1123.09 211.67 1068.02 211.83 1012.95 211.72 C 1011.17 211.73 1008.30 211.60 1008.43 214.11 C 1008.20 224.75 1008.43 235.40 1008.33 246.04 C 1008.18 251.07 1009.21 256.44 1012.80 260.19 C 1016.50 264.55 1022.39 266.27 1027.94 266.25 C 1080.97 266.25 1134.00 266.23 1187.03 266.26 C 1188.20 266.27 1190.09 266.42 1190.15 268.03 C 1190.66 272.99 1190.20 278.00 1190.34 282.99 C 1190.19 288.66 1190.80 294.38 1189.81 300.00 L 1017.67 300.00 C 999.25 298.95 981.56 286.22 976.60 268.14 C 974.13 260.33 974.76 252.06 974.70 244.00 C 974.71 193.65 974.65 143.30 974.72 92.95 Z" />
<path fill="#000000" opacity="1.00" d=" M 1234.47 92.98 C 1234.28 91.48 1235.09 89.78 1236.87 90.08 C 1245.92 89.87 1254.99 90.06 1264.05 89.99 C 1265.51 90.18 1268.17 89.72 1267.98 91.99 C 1268.32 102.99 1267.99 114.01 1268.11 125.02 C 1268.11 179.34 1268.11 233.66 1268.11 287.98 C 1268.13 291.99 1268.36 296.04 1267.52 300.00 L 1235.21 300.00 C 1234.79 298.72 1234.43 297.41 1234.44 296.06 C 1234.49 228.37 1234.43 160.67 1234.47 92.98 Z" />
<path fill="#000000" opacity="1.00" d=" M 1312.58 90.65 C 1313.60 90.20 1314.69 89.98 1315.85 89.99 C 1382.22 89.99 1448.60 90.03 1514.98 89.98 C 1518.84 90.10 1523.70 89.16 1526.35 92.78 C 1529.47 96.09 1527.74 101.16 1524.82 103.98 C 1481.08 152.49 1437.33 201.00 1393.59 249.52 C 1388.92 255.11 1383.30 259.95 1379.39 266.13 C 1427.95 266.43 1476.52 266.12 1525.08 266.28 C 1526.18 266.24 1527.87 266.62 1527.89 268.05 C 1528.40 273.01 1527.94 278.01 1528.09 282.99 C 1527.90 288.66 1528.60 294.39 1527.51 300.00 L 1319.47 300.00 C 1313.30 299.87 1309.84 291.77 1314.31 287.41 C 1363.09 232.97 1412.17 178.80 1460.96 124.36 C 1459.38 123.69 1457.69 123.41 1456.02 123.46 C 1408.33 123.60 1360.64 123.38 1312.96 123.58 C 1311.52 118.50 1312.46 113.16 1312.22 107.97 C 1312.43 102.20 1311.74 96.37 1312.58 90.65 Z" />
<path fill="#000000" opacity="1.00" d=" M 1572.55 90.65 C 1577.53 89.20 1582.88 90.34 1588.03 90.00 C 1593.82 90.35 1599.81 89.22 1605.49 90.62 C 1606.33 96.04 1605.65 101.56 1605.86 107.02 C 1605.84 153.02 1605.89 199.02 1605.83 245.02 C 1605.76 249.77 1606.14 254.91 1609.20 258.80 C 1612.74 263.85 1618.97 266.29 1625.01 266.23 C 1666.67 266.29 1708.33 266.19 1750.00 266.29 C 1751.28 266.07 1753.53 266.71 1754.00 264.96 C 1754.44 261.65 1754.15 258.31 1754.21 254.98 C 1754.20 201.30 1754.22 147.61 1754.20 93.92 C 1754.36 92.50 1753.83 90.13 1755.98 90.18 C 1763.28 89.69 1770.63 90.17 1777.96 89.99 C 1781.30 90.08 1784.87 89.43 1788.00 90.97 L 1788.00 299.56 C 1787.93 299.67 1787.79 299.89 1787.72 300.00 L 1615.52 300.00 C 1602.89 299.21 1590.47 293.45 1582.37 283.61 C 1575.37 275.47 1572.06 264.62 1572.21 253.98 C 1572.20 207.66 1572.20 161.34 1572.20 115.01 C 1572.44 106.90 1571.71 98.73 1572.55 90.65 Z" />
</g>
</svg>
