<?xml version="1.0" encoding="utf-8"?>
<!-- Generator: $$$/GeneralStr/196=Adobe Illustrator 27.6.0, SVG Export Plug-In . SVG Version: 6.00 Build 0)  -->
<svg version="1.1" id="图层_1" xmlns="http://www.w3.org/2000/svg" xmlns:xlink="http://www.w3.org/1999/xlink" x="0px" y="0px"
	 viewBox="0 0 400 128" style="enable-background:new 0 0 400 128;" xml:space="preserve">
<style type="text/css">
	.st0{fill:#150301;}
</style>
<path class="st0" d="M145,113.4l21.6-97.3l26.6,0l-11.6,51.8l21.5-26h29.8l-26.7,32.4l11,39.1h-26.6l-11-37l-8.7,37L145,113.4
	L145,113.4z M48.9,64.5l18.8,48.9h25.5l22-97.3l-26.3,0L77.7,65.6L59.3,16.1H32.7L11,113.4h26.8C40.8,97.8,44.9,81.3,48.9,64.5z
	 M132.2,113.4l15.9-71.5H122l-15.9,71.5H132.2z M123.4,26.3c0,2.2,0.5,10.2,14.8,10.2c11.9,0,16.5-7.6,16.5-13.3
	c0-3.8-3.1-10.5-14.8-10.5C129,12.7,123.4,19.9,123.4,26.3z M374.8,41c-11.2-3.3-25,2.2-31.9,11.7c0.7-2.9,1.4-6.3,2.2-10.3h-26.5
	l-15.5,71h26.4l8.8-40.3c1.6-7.4,7.6-10.6,12.9-9.2c2.3,0.6,5.4,2.3,4.4,8.5l-9,41h26.1l12-54.7C387.1,46.6,377.2,41.7,374.8,41z
	 M286,107c11.5-9.4,17.1-25.2,16.9-40.1c-0.2-14.3-12.3-27.9-33.4-27.9c-40.2,0-46.1,31.4-47.3,37.1c-2.9,14.5,0.3,33.3,19.2,38.3
	C254,117.6,273.5,117.2,286,107z M256.5,65.5c1.9-5.2,7-6.4,9.4-6.4c5.8,0,7.3,3.4,6.8,6.6c-1.4,8.9-4.5,20.3-5.6,23.9
	c0,0,0,0.1,0,0.1c-1.3,3.9-5,6.2-9.4,6.2c-4.4,0-7.1-2.8-6.7-6.3C251.6,83.7,255.4,68.5,256.5,65.5z"/>
</svg>
