<svg xmlns="http://www.w3.org/2000/svg" viewBox="0 0 103 24" class="ico svg-icon" fill="#f50514">
    <path fill-rule="evenodd" clip-rule="evenodd"
        d="M.998 3.75V24h20.25V12.438h-2.25v9.312H3.248V6h9.313V3.75H.998zM18.996 0v3.75h-3.75V6h3.75v3.75h2.25V6h3.75V3.75h-3.75V0h-2.25z">
    </path>
    <path fill-rule="evenodd" clip-rule="evenodd"
        d="M12.56 18.75V8.875h-2c0 .68-.229 1.192-.576 1.496-.362.304-.911.441-1.548.441h-.25v1.626h2.124v6.312h2.25zm23.264-5.087c0-2.278-1.023-4.046-3.116-4.046s-3.163 1.768-3.163 4.046c0 2.263 1.07 4.031 3.163 4.031s3.116-1.768 3.116-4.03zm-8.642 0c0-3.41 2.14-5.942 5.511-5.942 3.372 0 5.496 2.533 5.496 5.942 0 3.41-2.124 5.927-5.496 5.927-3.37 0-5.511-2.517-5.511-5.927zm12.986-5.719h2.349l3.802 6.357c.367.62.798 1.593.798 1.593h.033s-.064-1.18-.064-1.976V7.944h2.284v11.39h-2.236l-3.899-6.292c-.367-.605-.814-1.577-.814-1.577h-.032s.064 1.195.064 1.991v5.879h-2.285V7.944zm11.836 0h8.403v1.943h-6.086v2.55h5.336v1.895H54.32v3.075h6.134v1.928h-8.451V7.944zm13.086 5.385h2.396c1.214 0 1.853-.67 1.853-1.705 0-1.067-.67-1.673-1.82-1.673h-2.43v3.378zm-2.4-5.385h5.017c1.326 0 2.316.382 2.987 1.068.64.653 1.023 1.545 1.023 2.596 0 2.15-1.422 3.6-3.818 3.6h-2.812v4.127h-2.396V7.945zm10.74 0h2.316v9.463h5.368v1.928H73.43V7.944zm8.912 7.726V7.945h2.317v7.727c0 1.178.59 2.007 2.14 2.007 1.47 0 2.157-.86 2.157-2.039V7.944h2.317v7.727c0 2.437-1.502 3.855-4.425 3.855-2.956 0-4.506-1.386-4.506-3.855zm10.56.144h2.269c.16 1.37.942 1.912 2.572 1.912 1.182 0 2.22-.414 2.22-1.466 0-1.115-1.085-1.338-2.827-1.736-2.045-.462-3.914-1.004-3.914-3.378 0-2.246 1.837-3.409 4.377-3.409 2.573 0 4.234 1.258 4.41 3.553h-2.221c-.128-1.148-1.022-1.721-2.205-1.721-1.246 0-2.06.526-2.06 1.338 0 .924.798 1.195 2.492 1.562 2.348.51 4.265 1.067 4.265 3.52 0 2.31-1.869 3.6-4.44 3.6-3.1 0-4.858-1.37-4.938-3.775z">
    </path>
</svg>