<svg xmlns="http://www.w3.org/2000/svg" width="760" height="180" viewBox="0 0 68 16" fill="#016a30" class="fill">
<path fill-rule="evenodd" clip-rule="evenodd" d="M7.98905 10.2055H7.98851H7.98775C4.59658 10.1696 2.40527 8.55674 2.40527 6.09663C2.40527 3.63652 4.59658 2.02361 7.98775 1.98779C11.3804 2.02361 13.5714 3.63652 13.5714 6.09663C13.5714 8.55674 11.3804 10.1696 7.98905 10.2055ZM8.08814 0.0017314C8.08728 0.00183962 8.01986 0.000649276 7.98588 0C7.95114 0.000432851 7.88362 0.0017314 7.88362 0.0017314C3.2414 0.0773721 0 2.58358 0 6.0966C0 9.60961 3.2414 12.1159 7.88254 12.1915C7.88254 12.1915 7.95114 12.1921 7.98491 12.1919C8.0204 12.1922 8.08836 12.1915 8.08836 12.1915C12.7294 12.1159 15.9707 9.60961 15.9707 6.0966C15.9707 2.58358 12.7294 0.0773721 8.08814 0.0017314Z">
</path> 
<path fill-rule="evenodd" clip-rule="evenodd" d="M59.3178 10.2055H59.3173H59.3164C55.9254 10.1696 53.7341 8.55674 53.7341 6.09663C53.7341 3.63652 55.9254 2.02361 59.3164 1.98779C62.7091 2.02361 64.9002 3.63652 64.9002 6.09663C64.9002 8.55674 62.7091 10.1696 59.3178 10.2055ZM59.4168 0.0017314C59.4159 0.00183962 59.3486 0.000649276 59.3144 0C59.2798 0.000432851 59.2122 0.0017314 59.2122 0.0017314C54.57 0.0773721 51.3286 2.58358 51.3286 6.0966C51.3286 9.60961 54.57 12.1159 59.2113 12.1915C59.2113 12.1915 59.2798 12.1921 59.3135 12.1919C59.3491 12.1922 59.417 12.1915 59.417 12.1915C64.058 12.1159 67.2993 9.60961 67.2993 6.0966C67.2993 2.58358 64.058 0.0773721 59.4168 0.0017314Z">
</path>
 <path fill-rule="evenodd" clip-rule="evenodd" d="M42.2396 10.2055H42.2391H42.2383C38.8472 10.1696 36.6559 8.55674 36.6559 6.09663C36.6559 3.63652 38.8472 2.02361 42.2383 1.98779C45.6309 2.02361 47.8221 3.63652 47.8221 6.09663C47.8221 8.55674 45.6309 10.1696 42.2396 10.2055ZM42.3386 0.0017314C42.3378 0.00183962 42.2705 0.000649276 42.2363 0C42.2016 0.000432851 42.1341 0.0017314 42.1341 0.0017314C39.9226 0.0377662 38.0295 0.625794 36.6528 1.61107V0.572012H34.2505V16H36.6528V10.5823C38.0293 11.5675 39.922 12.1555 42.133 12.1915C42.1332 12.1916 42.2016 12.1921 42.2353 12.1919C42.271 12.1922 42.3387 12.1915 42.3387 12.1915C46.9798 12.1159 50.2212 9.60961 50.2212 6.09659C50.2212 2.58358 46.9798 0.0773721 42.3386 0.0017314Z">
</path> 
<path fill-rule="evenodd" clip-rule="evenodd" d="M25.112 10.2055H25.1115H25.1108C21.7196 10.1696 19.5283 8.55674 19.5283 6.09663C19.5283 3.63652 21.7196 2.02361 25.1108 1.98779C28.5034 2.02361 30.6945 3.63652 30.6945 6.09663C30.6945 8.55674 28.5034 10.1696 25.112 10.2055ZM25.2151 0.0017314C25.2141 0.00183962 25.1468 0.000649276 25.1127 0C25.078 0.000432851 25.0105 0.0017314 25.0105 0.0017314C22.7989 0.0377662 20.9058 0.625794 19.5292 1.61107V0.572012H17.127V16H19.5292V10.5823C20.9057 11.5675 22.7985 12.1555 25.0094 12.1915C25.0094 12.1915 25.078 12.1921 25.1118 12.1919C25.1474 12.1922 25.2152 12.1915 25.2152 12.1915C29.8562 12.1159 33.0975 9.60961 33.0975 6.09659C33.0975 2.58358 29.8562 0.0773721 25.2151 0.0017314Z">
</path>
</svg>