<?xml version="1.0" encoding="utf-8"?>
<!-- Generator: $$$/GeneralStr/196=Adobe Illustrator 27.6.0, SVG Export Plug-In . SVG Version: 6.00 Build 0)  -->
<svg version="1.1" id="图层_1" xmlns="http://www.w3.org/2000/svg" xmlns:xlink="http://www.w3.org/1999/xlink" x="0px" y="0px"
	 viewBox="0 0 456 48" style="enable-background:new 0 0 456 48;" xml:space="preserve">
<style type="text/css">
	.st0{fill-rule:evenodd;clip-rule:evenodd;fill:#FFFFFF;}
</style>
<g id="页面-1">
	<g id="AC204_x2F_pc_x2F_01" transform="translate(-635.000000, -216.000000)">
		<g id="div" transform="translate(614.000000, 176.000000)">
			<g id="h1" transform="translate(21.000000, 40.000000)">
				<g id="_x2A_atom_x5F_single_x2F_en_x2F_action_x2F_demi_x2F_24" transform="translate(212.000000, 0.000000)">
					<path id="Fill-1" class="st0" d="M0,47.4h7l3.4-8.5h19.9l3.5,8.5h7.6L20.9,0.1h-0.8L0,47.4z M13,32.8l5.1-12.7
						c0.4-1.1,1-2.6,1.5-4.4l0.7-2.5c0,0.3,0.3,1.1,0.8,2.6c0.5,1.7,1,3.2,1.5,4.3l5.1,12.7H13z M67.4,48c8.6,0,15.1-3.3,19.4-10
						l-5.6-3.9c-1.6,2.3-3.5,4.1-5.7,5.3c-2.3,1.3-5.1,2-8.2,2c-4.8,0-8.8-1.7-12-5c-3.1-3.3-4.7-7.4-4.7-12.4c0-5,1.6-9.2,4.7-12.5
						c3.1-3.3,7.1-4.9,12-4.9c5.9,0,10.3,2.2,13.2,6.7l5.6-4C82,3.2,75.8,0.1,67.4,0.1c-6.8,0-12.4,2.3-17,6.8
						c-4.7,4.6-7,10.3-7,17.2c0,6.9,2.3,12.7,7,17.3C55,45.8,60.7,48,67.4,48L67.4,48z M105.3,47.4h7.2V7h13.9V0.6H91.4V7h13.9V47.4
						z M133.3,47.4h7.2V0.6h-7.2V47.4z M173.7,48c6.8,0,12.5-2.2,17.1-6.7c4.7-4.6,7-10.3,7-17.3c0-6.9-2.3-12.7-7-17.3
						C186.2,2.3,180.5,0,173.7,0c-6.8,0-12.5,2.3-17.2,6.8c-4.7,4.6-7,10.3-7,17.3c0,6.9,2.3,12.7,7,17.3
						C161.2,45.8,166.9,48,173.7,48L173.7,48z M173.7,41.5c-4.9,0-8.9-1.7-12.1-5C158.5,33.2,157,29,157,24c0-5,1.6-9.2,4.7-12.5
						c3.2-3.4,7.2-5,12.1-5c4.9,0,8.9,1.7,12,5c3.1,3.3,4.7,7.4,4.7,12.5c0,5-1.6,9.1-4.7,12.4C182.6,39.8,178.6,41.5,173.7,41.5
						L173.7,41.5z M243.1,47.9h0.9V0.6h-6.8v25.7c0,1.1,0.1,2.5,0.3,4.3c0,0.3,0,0.7,0.1,1c0,0.3,0,0.5,0.1,0.8l0.1,0.7l-1.5-1.9
						c-1.2-1.4-2.1-2.5-2.8-3.3L207.5,0.1h-1v47.3h6.8V21.6c0-1.2-0.1-2.7-0.2-4.5l-0.3-2.3l1.5,1.9c1.2,1.4,2.1,2.5,2.9,3.4
						L243.1,47.9z"/>
				</g>
				<g id="_x2A_atom_x5F_single_x2F_en_x2F_pro_x2F_light_x2F_24" transform="translate(532.000000, 0.000000)">
				</g>
				<g>
					<g id="Color-颜色">
						<path id="path-3" class="st0" d="M24.2,0C31,0,36.7,2.3,41.3,6.8c4.7,4.6,7,10.3,7,17.3c0,6.9-2.3,12.7-7,17.3
							C36.7,45.8,31,48,24.2,48c-6.8,0-12.5-2.2-17.2-6.7C2.3,36.7,0,30.9,0,24c0-6.9,2.3-12.7,7-17.3C11.7,2.3,17.4,0,24.2,0z
							 M68.5,0.1c6.1,0,10.5,2.5,13.2,7.4l0,0L76,11c-1.7-3-4.2-4.6-7.5-4.6c-4,0-6.1,1.8-6.1,5.4c0,2.8,2.3,5.2,6.8,7.2l0,0l3,1.4
							c4.3,1.9,7.3,3.8,9.2,5.8c2.1,2.4,3.1,5.3,3.1,8.9c0,4-1.4,7.2-4.3,9.6c-2.8,2.2-6.5,3.4-10.9,3.4c-4.2,0-7.8-1-10.8-2.9
							c-2.6-1.6-4.6-3.9-6.1-6.8l0,0l6-3.3c1.3,2.1,2.7,3.7,4.1,4.6c1.8,1.3,4.1,1.9,6.7,1.9c5.4,0,8.1-2.1,8.1-6.4
							c0-1.9-0.7-3.5-2-4.7c-1.1-1-3.1-2.1-5.9-3.4l0,0l-3.1-1.4c-3.7-1.7-6.4-3.4-8.1-5.3c-1.9-2.2-2.9-5-2.9-8.4
							c0-3.5,1.2-6.3,3.7-8.5C61.5,1.2,64.6,0.1,68.5,0.1z M171.9,0c6.8,0,12.5,2.3,17.1,6.8c4.7,4.6,7,10.3,7,17.3
							c0,6.9-2.3,12.7-7,17.3c-4.6,4.5-10.4,6.7-17.1,6.7c-6.8,0-12.5-2.2-17.2-6.7c-4.7-4.6-7-10.3-7-17.3c0-6.9,2.3-12.7,7-17.3
							C159.3,2.3,165.1,0,171.9,0z M93.5,0.1l22.4,26.1l22.2-26.1h0.7v47.3h-7l0-24.5c0-1,0.1-2.4,0.1-4l0,0l0.1-2.4l-1.4,2.1
							c-1.1,1.5-2,2.7-2.7,3.5l0,0l-11.8,14.2h-0.8L103.6,22c-0.7-0.8-1.6-2-2.6-3.4l0,0l-1.5-2.1l0.1,2.4c0.1,1.8,0.1,3.2,0.1,4.3
							l0,0v24.3h-7V0.1H93.5z M24.2,6.5c-4.9,0-8.9,1.7-12.1,5C9,14.8,7.4,19,7.4,24c0,5,1.6,9.1,4.7,12.4c3.2,3.4,7.2,5,12.1,5
							c4.9,0,8.9-1.7,12-5c3.1-3.3,4.7-7.4,4.7-12.4c0-5-1.6-9.2-4.7-12.5C33.1,8.2,29.1,6.5,24.2,6.5z M171.9,6.5
							c-4.9,0-8.9,1.7-12.1,5c-3.1,3.3-4.7,7.4-4.7,12.5c0,5,1.6,9.1,4.7,12.4c3.2,3.4,7.2,5,12.1,5c4.9,0,8.9-1.7,12-5
							c3.1-3.3,4.7-7.4,4.7-12.4c0-5-1.6-9.2-4.7-12.5C180.7,8.2,176.7,6.5,171.9,6.5z"/>
					</g>
				</g>
			</g>
		</g>
	</g>
</g>
</svg>
