<?xml version="1.0" encoding="utf-8"?>
<!-- Generator: $$$/GeneralStr/196=Adobe Illustrator 27.6.0, SVG Export Plug-In . SVG Version: 6.00 Build 0)  -->
<svg version="1.1" id="图层_1" xmlns="http://www.w3.org/2000/svg" xmlns:xlink="http://www.w3.org/1999/xlink" x="0px" y="0px"
	 viewBox="0 0 5388 1311" style="enable-background:new 0 0 5388 1311;" xml:space="preserve">
<style type="text/css">
	.st0{fill:#FFFFFF;}
</style>
<g id="XMLID_00000095306977598287484750000016458627442061448889_">
	<g>
		<polygon class="st0" points="5387.3,10.3 5387.3,155.9 5068.6,155.9 5068.6,288.3 5372.6,288.3 5372.6,434 5068.6,434 
			5068.6,588.9 5387,588.9 5387,734.5 4918.5,734.5 4918.5,589.4 4850.2,589.4 4850.2,10.3 		"/>
		<polygon class="st0" points="5387,1076.6 5387,1306.8 5374.1,1306.8 5212,1102.2 5212,1306.8 5195.6,1306.8 5195.6,1076.6 
			5211.7,1076.6 5370.5,1276.9 5370.5,1076.6 		"/>
		<path class="st0" d="M5137.4,1191v0.7c0,62.8-46.4,119-116.1,119s-115.4-55.6-115.4-118.4h0v-0.7c0-62.8,46.4-119,116.1-119
			S5137.4,1128.2,5137.4,1191z M5119.6,1192.3v-0.7c0-56.9-41.4-103.6-98.3-103.6s-97.7,46-97.7,102.9v0.7
			c0,56.9,41.4,103.6,98.3,103.6S5119.6,1249.2,5119.6,1192.3L5119.6,1192.3z"/>
		<rect x="4828.3" y="1076.6" class="st0" width="17.1" height="230.2"/>
		<polygon class="st0" points="4774,1076.6 4774,1092.4 4693.8,1092.4 4693.8,1306.8 4676.7,1306.8 4676.7,1092.4 4596.4,1092.4 
			4596.4,1076.6 		"/>
		<polygon class="st0" points="4677.4,10.3 4573.4,107.4 4573.4,193.9 4659.2,193.9 4659.2,589.4 4590.8,589.4 4590.8,734.5 
			4483.1,734.5 4107.4,331.4 4107.4,734.5 3890.9,734.5 3890.9,10.3 4084.9,10.3 4459.5,411.5 4459.5,10.3 		"/>
		<path class="st0" d="M4486.6,1074.9l107.2,231.8H4575l-29.3-64.5H4410l-29.3,64.5h-17.8l107.2-231.8h0H4486.6z M4538.5,1226.9
			l-60.5-133.2l-60.8,133.2H4538.5z"/>
		<polygon class="st0" points="4314.3,1076.6 4314.3,1306.8 4301.4,1306.8 4139.3,1102.2 4139.3,1306.8 4122.9,1306.8 
			4122.9,1076.6 4139,1076.6 4297.8,1276.9 4297.8,1076.6 		"/>
		<rect x="4035.1" y="1076.6" class="st0" width="17.1" height="230.2"/>
		<path class="st0" d="M3970.9,1187.4v88.8c-20.7,18.4-52.9,34.5-90.4,34.5c-72.7,0-115.8-53.6-115.8-118.4l0,0v-0.7
			c0-62.1,45.1-119,113.8-119c37.5,0,61.2,11.2,84.2,30.2l-11.2,12.8c-18.1-15.8-39.1-27.6-74-27.6c-55.9,0-95,47.3-95,102.9v0.7
			c0,59.5,37.2,103.9,98.6,103.9c29.3,0,56.6-12.2,73.3-26.3v-66.1h-76.9v-15.8H3970.9z"/>
		<path class="st0" d="M3809.4,371.8L3809.4,371.8c0,67.6-15.5,129.7-46.8,186.5c-31.1,56.8-77.5,101.9-139.1,135.4
			c-61.6,33.4-136.7,50.1-225.1,50.1c-88.4,0-165.2-17.4-227.2-52.2c-61.9-34.8-108-80.6-138.1-137.3
			c-30.1-56.8-45.2-117.5-45.2-182.3s15-126,44.9-182.6c29.9-56.6,76-102.2,138.1-136.9c62.2-34.7,138-52,227.5-52
			c66.8,0,126.5,9.9,178.9,29.8c52.4,19.9,95.5,46.8,129.2,80.7c33.8,34,59.4,73.5,76.8,118.6C3800.7,274.6,3809.4,322,3809.4,371.8
			z M3586.9,371.8L3586.9,371.8c0-27.2-4-51.9-12-74.4c-8-22.5-20.1-42-36.3-58.5c-16.2-16.6-36-29.4-59.3-38.7
			c-23.3-9.2-50.3-13.8-80.9-13.8c-58.5,0-104.5,17.1-138,51.2c-33.4,34.1-50.1,78.9-50.1,134.2s16.8,100.2,50.4,134.5
			c33.6,34.3,79.5,51.5,137.6,51.5c40.1,0,74.2-7.9,102.4-23.8c28.2-15.9,49.7-37.8,64.3-65.8
			C3579.6,440.2,3586.9,408.1,3586.9,371.8z"/>
		<path class="st0" d="M3632.2,1074.9l107.2,231.8h-18.7l-29.3-64.5h-135.8l-29.3,64.5h-17.8l107.2-231.8h0H3632.2z M3684.2,1226.9
			l-60.5-133.2l-60.8,133.2H3684.2z"/>
		<polygon class="st0" points="3459.9,1076.6 3459.9,1306.8 3442.8,1306.8 3442.8,1106.8 3351.7,1239.4 3350.4,1239.4 
			3259.3,1106.8 3259.3,1306.8 3242.9,1306.8 3242.9,1076.6 3259,1076.6 3351.4,1212.7 3443.8,1076.6 		"/>
		<rect x="3155.1" y="1076.6" class="st0" width="17.1" height="230.2"/>
		<path class="st0" d="M2995.9,1191v0.7c0,64.8-50,115.1-122.3,115.1H2797v-230.2v0h76.6C2945.9,1076.6,2995.9,1126.3,2995.9,1191z
			 M2978.2,1192.3v-0.7c0-54.6-40.4-99.3-104.6-99.3h-59.5V1291h59.5C2937.7,1291,2978.2,1247.3,2978.2,1192.3z"/>
		<polygon class="st0" points="2905.5,688 2905.5,734.6 2511,734.6 2511,11.3 2905.5,11.3 2905.5,57.8 2566.8,57.8 2566.8,347.3 
			2897,347.3 2897,394.6 2566.8,394.6 2566.8,688 		"/>
		<polygon class="st0" points="2728.6,1076.6 2728.6,1306.8 2715.7,1306.8 2553.6,1102.2 2553.6,1306.8 2537.2,1306.8 
			2537.2,1076.6 2537.2,1076.6 2553.3,1076.6 2712.1,1276.9 2712.1,1076.6 		"/>
		<path class="st0" d="M2479,1191v0.7c0,62.8-46.4,119-116.1,119c-69.7,0-115.4-55.6-115.4-118.4h0v-0.7c0-62.8,46.4-119,116.1-119
			S2479,1128.2,2479,1191z M2461.2,1192.3L2461.2,1192.3l0-0.7c0-56.9-41.4-103.6-98.3-103.6c-56.9,0-97.7,46-97.7,102.9v0.7
			c0,56.9,41.4,103.6,98.3,103.6C2420.4,1295.3,2461.2,1249.2,2461.2,1192.3z"/>
		<path class="st0" d="M2356.4,443.3c17.6,26.3,26.4,60.3,26.4,102.1c0,55.6-20.4,102.6-61.1,140.9c-40.8,38.3-90.5,57.5-149.2,57.5
			s-121.9-21-185.4-63v-65.6c70.2,51.2,131,76.8,182.5,76.8c42.9,0,79-14,108.6-41.8c29.6-27.8,44.3-62,44.3-102.4
			c0-30.8-9.1-58.5-27.4-83.3c-18.3-24.7-55.5-47.8-111.5-69.1c-56.1-21.4-96.1-38.6-120.1-51.7c-24-13.1-44.4-31.9-61.1-56.2
			c-16.8-24.4-25.2-55.7-25.2-94c0-53.1,20.4-98.4,61.1-135.9C2079,20.1,2128,1.4,2185.4,1.4c57.3,0,112,15.2,167.3,45.5v0v61.5
			c-62.9-36.7-116.9-55.1-162.2-55.1s-79.9,13.2-109.1,39.6c-29.2,26.4-43.8,59.1-43.8,98.2c0,28,8.7,53.2,26,75.6
			c17.3,22.4,53.4,44,108.4,64.8c55,20.7,95.1,38,120.3,51.8C2317.4,397,2338.8,417,2356.4,443.3z"/>
		<polygon class="st0" points="2232.7,1076.6 2134,1215.4 2134,1306.8 2116.9,1306.8 2116.9,1215.7 2116.9,1215.7 2018.3,1076.6 
			2039.6,1076.6 2125.8,1200.2 2212.3,1076.6 		"/>
		<polygon class="st0" points="1987,1291 1987,1306.8 1821.6,1306.8 1821.6,1076.6 1985.4,1076.6 1985.4,1092.4 1838.7,1092.4 
			1838.7,1182.8 1970.6,1182.8 1970.6,1198.6 1838.7,1198.6 1838.7,1291 		"/>
		<path class="st0" d="M1590.2,6L1924,734.6h-58.6L1751,484.5h-353.5l-113.8,250.1H1225L1558.8,6H1590.2z M1729.7,437.9L1573.9,97.1
			l-155.2,340.8H1729.7z"/>
		<path class="st0" d="M1766.7,1243.3v0.7c0,38.5-32.9,62.8-82.5,62.8h-100v-230.2l0,0h95c26,0,47,7.6,59.8,20.4
			c9.5,9.5,14.8,21.7,14.8,36.2v0.7c0,31.2-20.4,47-39.1,54.6C1742.4,1195.6,1766.7,1211.4,1766.7,1243.3z M1749.3,1244v-0.7
			c0-28.3-24.7-44.7-70-44.7h-77.9v92.4h83.5C1724.3,1291,1749.3,1272.9,1749.3,1244z M1736.4,1134.8L1736.4,1134.8
			c0-25.3-20.7-42.4-57.5-42.4h-77.6v90.4h76c34.5,0,59.2-16.8,59.2-47.4V1134.8z"/>
		<path class="st0" d="M1423.7,1187.4v88.8c-20.7,18.4-52.9,34.5-90.4,34.5c-72.7,0-115.8-53.6-115.8-118.4l0,0v-0.7
			c0-62.1,45.1-119,113.8-119c37.5,0,61.2,11.2,84.2,30.2l-11.2,12.8c-18.1-15.8-39.1-27.6-74-27.6c-55.9,0-95,47.3-95,102.9v0.7
			c0,59.5,37.2,103.9,98.7,103.9c29.3,0,56.6-12.2,73.3-26.3v-66.1h-76.9v-15.8H1423.7z"/>
		<polygon class="st0" points="1159.3,1076.6 1159.3,1306.8 1146.5,1306.8 984.4,1102.2 984.4,1306.8 967.9,1306.8 967.9,1076.6 
			984,1076.6 1142.9,1276.9 1142.9,1076.6 		"/>
		<polygon class="st0" points="1136.9,11.3 1136.9,734.6 1080.4,734.6 1080.4,391.3 598,391.3 598,734.6 542.2,734.6 542.2,11.3 
			598,11.3 598,344.7 1080.4,344.7 1080.4,11.3 		"/>
		<rect x="880.1" y="1076.6" class="st0" width="17.1" height="230.2"/>
		<path class="st0" d="M816,1187.4v88.8c-20.7,18.4-52.9,34.5-90.4,34.5c-72.7,0-115.8-53.6-115.8-118.4l0,0v-0.7
			c0-62.1,45-119,113.8-119c37.5,0,61.2,11.2,84.2,30.2l-11.2,12.8c-18.1-15.8-39.1-27.6-74-27.6c-55.9,0-95,47.3-95,102.9v0.7
			c0,59.5,37.2,103.9,98.7,103.9c29.3,0,56.6-12.2,73.3-26.3v-66.1h-77v-15.8H816z"/>
		<path class="st0" d="M477.3,1074.9l107.2,231.8h-18.7l-29.3-64.5H400.6l-29.3,64.5h-17.8l107.2-231.8h0H477.3z M529.2,1226.9
			l-60.5-133.2l-60.8,133.2H529.2z"/>
		<path class="st0" d="M375.1,62.5c40.6,34.2,60.9,80.8,60.9,139.8s-20.5,107-61.4,141.9c-41,34.9-101,52.3-180.2,52.3H55.9v338.1
			H0.1V11.3h199.5C276,11.3,334.5,28.3,375.1,62.5z M375.6,203.4c0-46.6-15.3-80-46.1-106.2C298.7,71,254.7,57.8,197.4,57.8H55.9
			v292.1h134.7c60.4,0,106.4-12.8,137.8-38.3C359.9,286.1,375.6,250,375.6,203.4z"/>
		<polygon class="st0" points="305,1076.6 305,1306.8 287.9,1306.8 287.9,1106.8 196.8,1239.4 195.4,1239.4 104.4,1106.8 
			104.4,1306.8 87.9,1306.8 87.9,1076.6 104,1076.6 196.4,1212.7 288.9,1076.6 		"/>
		<rect x="0.1" y="1076.6" class="st0" width="17.1" height="230.2"/>
	</g>
	<g>
	</g>
</g>
</svg>
