<svg width="5388" height="1311" viewBox="0 0 5388 1311" fill="none" xmlns="http://www.w3.org/2000/svg">
    <path d="M0.119995 1076.6H17.22V1306.79H0.119995V1076.6Z" fill="#abadb0" class="tagline"></path>
    <path
        d="M87.92 1076.6H104.03L196.44 1212.74L288.85 1076.6H304.96V1306.79H287.86V1106.85L196.77 1239.38H195.45L104.36 1106.85V1306.79H87.92V1076.6Z"
        fill="#abadb0" class="tagline"></path>
    <path
        d="M460.83 1074.95H477.27L584.47 1306.79H565.73L536.46 1242.34H400.65L371.38 1306.79H353.62L460.82 1074.95H460.83ZM529.23 1226.88L468.72 1093.7L407.88 1226.88H529.23Z"
        fill="#abadb0" class="tagline"></path>
    <path
        d="M609.8 1192.35V1191.69C609.8 1129.54 654.85 1072.65 723.58 1072.65C761.07 1072.65 784.74 1083.83 807.76 1102.9L796.58 1115.73C778.49 1099.95 757.45 1088.11 722.59 1088.11C666.69 1088.11 627.55 1135.46 627.55 1191.04V1191.7C627.55 1251.22 664.71 1295.62 726.2 1295.62C755.47 1295.62 782.76 1283.45 799.53 1269.31V1203.21H722.58V1187.43H815.97V1276.22C795.25 1294.64 763.03 1310.75 725.54 1310.75C652.87 1310.75 609.79 1257.15 609.79 1192.36L609.8 1192.35Z"
        fill="#abadb0" class="tagline"></path>
    <path d="M880.12 1076.6H897.22V1306.79H880.12V1076.6Z" fill="#abadb0" class="tagline"></path>
    <path d="M967.92 1076.6H984.03L1142.86 1276.87V1076.6H1159.3V1306.79H1146.48L984.36 1102.25V1306.79H967.92V1076.6Z"
        fill="#abadb0" class="tagline"></path>
    <path
        d="M1217.51 1192.35V1191.69C1217.51 1129.54 1262.56 1072.65 1331.29 1072.65C1368.78 1072.65 1392.45 1083.83 1415.47 1102.9L1404.29 1115.73C1386.2 1099.95 1365.16 1088.11 1330.3 1088.11C1274.4 1088.11 1235.26 1135.46 1235.26 1191.04V1191.7C1235.26 1251.22 1272.42 1295.62 1333.91 1295.62C1363.18 1295.62 1390.47 1283.45 1407.24 1269.31V1203.21H1330.29V1187.43H1423.68V1276.22C1402.96 1294.64 1370.74 1310.75 1333.25 1310.75C1260.58 1310.75 1217.5 1257.15 1217.5 1192.36L1217.51 1192.35Z"
        fill="#abadb0" class="tagline"></path>
    <path
        d="M1584.18 1076.6H1679.22C1705.2 1076.6 1726.24 1084.16 1739.07 1096.99C1748.61 1106.53 1753.87 1118.69 1753.87 1133.16V1133.82C1753.87 1165.06 1733.48 1180.85 1714.74 1188.41C1742.36 1195.64 1766.7 1211.43 1766.7 1243.33V1243.99C1766.7 1282.47 1733.82 1306.8 1684.16 1306.8H1584.19V1076.61L1584.18 1076.6ZM1736.44 1134.8C1736.44 1109.48 1715.72 1092.38 1678.89 1092.38H1601.28V1182.81H1677.24C1711.77 1182.81 1736.43 1166.04 1736.43 1135.46V1134.8H1736.44ZM1679.22 1198.6H1601.28V1291.01H1684.81C1724.27 1291.01 1749.26 1272.92 1749.26 1243.98V1243.32C1749.26 1215.04 1724.6 1198.6 1679.22 1198.6Z"
        fill="#abadb0" class="tagline"></path>
    <path
        d="M1821.61 1076.6H1985.38V1092.38H1838.71V1182.81H1970.58V1198.59H1838.71V1291H1987.02V1306.78H1821.61V1076.59V1076.6Z"
        fill="#abadb0" class="tagline"></path>
    <path
        d="M2116.91 1215.7L2018.26 1076.6H2039.63L2125.79 1200.25L2212.28 1076.6H2232.67L2134.02 1215.37V1306.79H2116.92V1215.7H2116.91Z"
        fill="#abadb0" class="tagline"></path>
    <path
        d="M2247.47 1192.35V1191.69C2247.47 1128.88 2293.84 1072.65 2363.55 1072.65C2433.26 1072.65 2478.98 1128.23 2478.98 1191.04V1191.7C2478.98 1254.51 2432.61 1310.74 2362.9 1310.74C2293.19 1310.74 2247.48 1255.16 2247.48 1192.35H2247.47ZM2461.22 1192.35V1191.69C2461.22 1134.8 2419.79 1088.1 2362.9 1088.1C2306.01 1088.1 2265.23 1134.14 2265.23 1191.03V1191.69C2265.23 1248.58 2306.67 1295.28 2363.56 1295.28C2420.45 1295.28 2461.23 1249.24 2461.23 1192.35H2461.22Z"
        fill="#abadb0" class="tagline"></path>
    <path
        d="M2537.18 1076.6H2553.29L2712.12 1276.87V1076.6H2728.56V1306.79H2715.73L2553.61 1102.25V1306.79H2537.17V1076.6H2537.18Z"
        fill="#abadb0" class="tagline"></path>
    <path
        d="M2796.97 1076.6H2873.59C2945.94 1076.6 2995.92 1126.26 2995.92 1191.04V1191.7C2995.92 1256.48 2945.94 1306.8 2873.59 1306.8H2796.97V1076.61V1076.6ZM2814.07 1092.38V1291H2873.59C2937.71 1291 2978.16 1247.26 2978.16 1192.35V1191.69C2978.16 1137.1 2937.71 1092.38 2873.59 1092.38H2814.07Z"
        fill="#abadb0" class="tagline"></path>
    <path d="M3155.09 1076.6H3172.19V1306.79H3155.09V1076.6Z" fill="#abadb0" class="tagline"></path>
    <path
        d="M3242.88 1076.6H3258.99L3351.4 1212.74L3443.81 1076.6H3459.92V1306.79H3442.82V1106.85L3351.73 1239.38H3350.41L3259.32 1106.85V1306.79H3242.88V1076.6Z"
        fill="#abadb0" class="tagline"></path>
    <path
        d="M3615.8 1074.95H3632.24L3739.44 1306.79H3720.7L3691.43 1242.34H3555.62L3526.35 1306.79H3508.59L3615.79 1074.95H3615.8ZM3684.2 1226.88L3623.69 1093.7L3562.85 1226.88H3684.2Z"
        fill="#abadb0" class="tagline"></path>
    <path
        d="M3764.77 1192.35V1191.69C3764.77 1129.54 3809.82 1072.65 3878.55 1072.65C3916.04 1072.65 3939.71 1083.83 3962.73 1102.9L3951.55 1115.73C3933.46 1099.95 3912.42 1088.11 3877.56 1088.11C3821.66 1088.11 3782.52 1135.46 3782.52 1191.04V1191.7C3782.52 1251.22 3819.68 1295.62 3881.17 1295.62C3910.44 1295.62 3937.73 1283.45 3954.5 1269.31V1203.21H3877.55V1187.43H3970.94V1276.22C3950.22 1294.64 3918 1310.75 3880.51 1310.75C3807.84 1310.75 3764.76 1257.15 3764.76 1192.36L3764.77 1192.35Z"
        fill="#abadb0" class="tagline"></path>
    <path d="M4035.09 1076.6H4052.19V1306.79H4035.09V1076.6Z" fill="#abadb0" class="tagline"></path>
    <path
        d="M4122.88 1076.6H4138.99L4297.82 1276.87V1076.6H4314.26V1306.79H4301.44L4139.32 1102.25V1306.79H4122.88V1076.6Z"
        fill="#abadb0" class="tagline"></path>
    <path
        d="M4470.15 1074.95H4486.59L4593.79 1306.79H4575.05L4545.78 1242.34H4409.97L4380.7 1306.79H4362.94L4470.14 1074.95H4470.15ZM4538.55 1226.88L4478.04 1093.7L4417.2 1226.88H4538.55Z"
        fill="#abadb0" class="tagline"></path>
    <path d="M4676.67 1092.38H4596.43V1076.6H4774.01V1092.38H4693.77V1306.79H4676.67V1092.38Z" fill="#abadb0"
        class="tagline"></path>
    <path d="M4828.27 1076.6H4845.37V1306.79H4828.27V1076.6Z" fill="#abadb0" class="tagline"></path>
    <path
        d="M4905.87 1192.35V1191.69C4905.87 1128.88 4952.24 1072.65 5021.95 1072.65C5091.66 1072.65 5137.37 1128.23 5137.37 1191.04V1191.7C5137.37 1254.51 5091 1310.74 5021.29 1310.74C4951.58 1310.74 4905.86 1255.16 4905.86 1192.35H4905.87ZM5119.62 1192.35V1191.69C5119.62 1134.8 5078.18 1088.1 5021.29 1088.1C4964.4 1088.1 4923.62 1134.14 4923.62 1191.03V1191.69C4923.62 1248.58 4965.05 1295.28 5021.94 1295.28C5078.83 1295.28 5119.61 1249.24 5119.61 1192.35H5119.62Z"
        fill="#abadb0" class="tagline"></path>
    <path
        d="M5195.59 1076.6H5211.7L5370.53 1276.87V1076.6H5386.97V1306.79H5374.15L5212.03 1102.25V1306.79H5195.59V1076.6Z"
        fill="#abadb0" class="tagline"></path>
    <path
        d="M3809.36 371.83C3809.36 439.41 3793.83 501.56 3762.61 558.3C3731.48 615.08 3685.1 660.21 3623.47 693.65C3561.83 727.08 3486.8 743.76 3398.36 743.76C3309.92 743.76 3233.14 726.39 3171.14 691.52C3109.2 656.76 3063.17 610.94 3033.02 554.18C3002.95 497.42 2987.84 436.64 2987.84 371.84C2987.84 307.04 3002.86 245.84 3032.79 189.24C3062.74 132.65 3108.76 87.0299 3170.89 52.3799C3233.06 17.7299 3308.89 0.399902 3398.37 0.399902C3465.21 0.399902 3524.85 10.3299 3577.26 30.1599C3629.67 50.0299 3672.74 76.9499 3706.49 110.88C3740.28 144.85 3765.85 184.39 3783.25 229.49C3800.73 274.59 3809.37 322.02 3809.37 371.84M3586.97 371.83C3586.97 344.65 3582.93 319.9 3574.94 297.41C3566.91 274.95 3554.84 255.43 3538.61 238.89C3522.42 222.33 3502.66 209.46 3479.29 200.22C3455.96 191.03 3428.99 186.42 3398.35 186.42C3339.83 186.42 3293.89 203.49 3260.39 237.59C3226.96 271.72 3210.28 316.45 3210.28 371.83C3210.28 427.21 3227.04 472.02 3260.7 506.32C3294.3 540.64 3340.2 557.8 3398.34 557.8C3438.43 557.8 3472.54 549.89 3500.73 534.03C3528.94 518.18 3550.39 496.24 3564.99 468.2C3579.61 440.17 3586.95 408.06 3586.95 371.83"
        fill="#00b9f2"></path>
    <path
        d="M4659.18 589.37V193.94H4573.44V107.42L4677.39 10.3198H4459.53V411.46L4084.91 10.3198H3890.95V734.51H4107.44V331.38L4483.07 734.51H4590.83V589.37H4659.18Z"
        fill="#00b9f2"></path>
    <path
        d="M5386.95 588.87H5068.65V433.98H5372.62V288.34H5068.65V155.94H5387.29V10.3398H4850.19V589.36H4918.54V734.49H5386.95V588.87Z"
        fill="#00b9f2"></path>
    <path
        d="M0.119995 11.26H199.67C276.01 11.26 334.47 28.33 375.08 62.53C415.68 96.7 435.98 143.31 435.98 202.34C435.98 261.37 415.51 309.36 374.55 344.24C333.59 379.14 273.54 396.54 194.37 396.54H55.92V734.59H0.130005V11.26H0.119995ZM55.91 57.84V349.94H190.64C251.06 349.94 297.02 337.16 328.45 311.63C359.86 286.07 375.58 250.02 375.58 203.41C375.58 156.8 360.24 123.44 329.49 97.22C298.74 70.97 254.7 57.84 197.4 57.84H55.91Z"
        fill="#abadb0" class="phase"></path>
    <path d="M1136.86 11.26V734.62H1080.43V391.3H597.98V734.62H542.19V11.26H597.98V344.68H1080.43V11.26H1136.86Z"
        fill="#abadb0" class="phase"></path>
    <path
        d="M1590.16 6L1924.04 734.62H1865.4L1751.01 484.5H1397.54L1283.7 734.62H1225.04L1558.84 6H1590.16ZM1729.71 437.91L1573.89 97.14L1418.74 437.91H1729.71Z"
        fill="#abadb0" class="phase"></path>
    <path
        d="M2352.63 46.8899V108.39C2289.75 71.6699 2235.69 53.2799 2190.41 53.2799C2145.13 53.2799 2110.52 66.4599 2081.32 92.8799C2052.11 119.32 2037.52 152.02 2037.52 191.05C2037.52 219.02 2046.2 244.22 2063.49 266.66C2080.75 289.1 2116.89 310.7 2171.92 331.41C2226.91 352.12 2267.03 369.41 2292.22 383.22C2317.41 397.04 2338.79 417.04 2356.43 443.29C2374 469.58 2382.81 503.6 2382.81 545.36C2382.81 600.98 2362.43 647.94 2321.67 686.28C2280.9 724.59 2231.16 743.76 2172.44 743.76C2113.72 743.76 2050.54 722.73 1986.99 680.74V615.14C2057.15 666.32 2117.96 691.94 2169.48 691.94C2212.35 691.94 2248.51 677.99 2278.07 650.16C2307.65 622.33 2322.41 588.18 2322.41 547.72C2322.41 516.92 2313.28 489.18 2294.97 464.44C2276.71 439.71 2239.51 416.66 2183.48 395.33C2127.39 373.96 2087.36 356.72 2063.36 343.63C2039.37 330.52 2019.01 311.75 2002.29 287.45C1985.5 263.1 1977.12 231.8 1977.12 193.47C1977.12 140.32 1997.5 95.0299 2038.26 57.5599C2078.98 20.1199 2128.02 1.38989 2185.35 1.38989C2242.68 1.38989 2297.39 16.5799 2352.63 46.8799"
        fill="#abadb0" class="phase"></path>
    <path d="M2905.52 11.26V57.83H2566.8V347.31H2896.96V394.57H2566.8V687.96H2905.52V734.62H2511.01V11.26H2905.52Z"
        fill="#abadb0" class="phase"></path>
</svg>