<?xml version="1.0" encoding="utf-8"?>
<!-- Generator: $$$/GeneralStr/196=Adobe Illustrator 27.6.0, SVG Export Plug-In . SVG Version: 6.00 Build 0)  -->
<svg version="1.1" id="图层_1" xmlns="http://www.w3.org/2000/svg" xmlns:xlink="http://www.w3.org/1999/xlink" x="0px" y="0px"
	 viewBox="0 0 5388 1311" style="enable-background:new 0 0 5388 1311;" xml:space="preserve">
<path d="M0.1,1076.6h17.1v230.2H0.1V1076.6z"/>
<path d="M87.9,1076.6H104l92.4,136.1l92.4-136.1H305v230.2h-17.1v-199.9l-91.1,132.5h-1.3l-91.1-132.5v199.9H87.9V1076.6z"/>
<path d="M460.8,1074.9h16.4l107.2,231.8h-18.7l-29.3-64.5H400.6l-29.3,64.5h-17.8L460.8,1074.9L460.8,1074.9z M529.2,1226.9
	l-60.5-133.2l-60.8,133.2H529.2z"/>
<path d="M609.8,1192.3v-0.7c0-62.1,45-119,113.8-119c37.5,0,61.2,11.2,84.2,30.2l-11.2,12.8c-18.1-15.8-39.1-27.6-74-27.6
	c-55.9,0-95,47.3-95,102.9v0.7c0,59.5,37.2,103.9,98.7,103.9c29.3,0,56.6-12.2,73.3-26.3v-66.1h-77v-15.8H816v88.8
	c-20.7,18.4-52.9,34.5-90.4,34.5C652.9,1310.8,609.8,1257.2,609.8,1192.3L609.8,1192.3z"/>
<path d="M880.1,1076.6h17.1v230.2h-17.1V1076.6z"/>
<path d="M967.9,1076.6H984l158.8,200.3v-200.3h16.4v230.2h-12.8l-162.1-204.5v204.5h-16.4V1076.6z"/>
<path d="M1217.5,1192.3v-0.7c0-62.1,45.1-119,113.8-119c37.5,0,61.2,11.2,84.2,30.2l-11.2,12.8c-18.1-15.8-39.1-27.6-74-27.6
	c-55.9,0-95,47.3-95,102.9v0.7c0,59.5,37.2,103.9,98.7,103.9c29.3,0,56.6-12.2,73.3-26.3v-66.1h-76.9v-15.8h93.4v88.8
	c-20.7,18.4-52.9,34.5-90.4,34.5C1260.6,1310.8,1217.5,1257.2,1217.5,1192.3L1217.5,1192.3z"/>
<path d="M1584.2,1076.6h95c26,0,47,7.6,59.8,20.4c9.5,9.5,14.8,21.7,14.8,36.2v0.7c0,31.2-20.4,47-39.1,54.6c27.6,7.2,52,23,52,54.9
	v0.7c0,38.5-32.9,62.8-82.5,62.8h-100L1584.2,1076.6L1584.2,1076.6z M1736.4,1134.8c0-25.3-20.7-42.4-57.5-42.4h-77.6v90.4h76
	c34.5,0,59.2-16.8,59.2-47.4L1736.4,1134.8L1736.4,1134.8z M1679.2,1198.6h-77.9v92.4h83.5c39.5,0,64.4-18.1,64.4-47v-0.7
	C1749.3,1215,1724.6,1198.6,1679.2,1198.6z"/>
<path d="M1821.6,1076.6h163.8v15.8h-146.7v90.4h131.9v15.8h-131.9v92.4H1987v15.8h-165.4V1076.6L1821.6,1076.6z"/>
<path d="M2116.9,1215.7l-98.6-139.1h21.4l86.2,123.7l86.5-123.7h20.4l-98.6,138.8v91.4h-17.1L2116.9,1215.7L2116.9,1215.7z"/>
<path d="M2247.5,1192.3v-0.7c0-62.8,46.4-119,116.1-119S2479,1128.2,2479,1191v0.7c0,62.8-46.4,119-116.1,119
	C2293.2,1310.7,2247.5,1255.2,2247.5,1192.3L2247.5,1192.3z M2461.2,1192.3v-0.7c0-56.9-41.4-103.6-98.3-103.6
	c-56.9,0-97.7,46-97.7,102.9v0.7c0,56.9,41.4,103.6,98.3,103.6C2420.4,1295.3,2461.2,1249.2,2461.2,1192.3L2461.2,1192.3z"/>
<path d="M2537.2,1076.6h16.1l158.8,200.3v-200.3h16.4v230.2h-12.8l-162.1-204.5v204.5h-16.4L2537.2,1076.6L2537.2,1076.6z"/>
<path d="M2797,1076.6h76.6c72.3,0,122.3,49.7,122.3,114.4v0.7c0,64.8-50,115.1-122.3,115.1H2797V1076.6L2797,1076.6z M2814.1,1092.4
	V1291h59.5c64.1,0,104.6-43.7,104.6-98.7v-0.7c0-54.6-40.4-99.3-104.6-99.3H2814.1z"/>
<path d="M3155.1,1076.6h17.1v230.2h-17.1V1076.6z"/>
<path d="M3242.9,1076.6h16.1l92.4,136.1l92.4-136.1h16.1v230.2h-17.1v-199.9l-91.1,132.5h-1.3l-91.1-132.5v199.9h-16.4V1076.6z"/>
<path d="M3615.8,1074.9h16.4l107.2,231.8h-18.7l-29.3-64.5h-135.8l-29.3,64.5h-17.8L3615.8,1074.9L3615.8,1074.9z M3684.2,1226.9
	l-60.5-133.2l-60.8,133.2H3684.2z"/>
<path d="M3764.8,1192.3v-0.7c0-62.1,45.1-119,113.8-119c37.5,0,61.2,11.2,84.2,30.2l-11.2,12.8c-18.1-15.8-39.1-27.6-74-27.6
	c-55.9,0-95,47.3-95,102.9v0.7c0,59.5,37.2,103.9,98.6,103.9c29.3,0,56.6-12.2,73.3-26.3v-66.1h-76.9v-15.8h93.4v88.8
	c-20.7,18.4-52.9,34.5-90.4,34.5C3807.8,1310.8,3764.8,1257.2,3764.8,1192.3L3764.8,1192.3z"/>
<path d="M4035.1,1076.6h17.1v230.2h-17.1V1076.6z"/>
<path d="M4122.9,1076.6h16.1l158.8,200.3v-200.3h16.4v230.2h-12.8l-162.1-204.5v204.5h-16.4V1076.6z"/>
<path d="M4470.1,1074.9h16.4l107.2,231.8H4575l-29.3-64.5H4410l-29.3,64.5h-17.8L4470.1,1074.9L4470.1,1074.9z M4538.5,1226.9
	l-60.5-133.2l-60.8,133.2H4538.5z"/>
<path d="M4676.7,1092.4h-80.2v-15.8H4774v15.8h-80.2v214.4h-17.1V1092.4z"/>
<path d="M4828.3,1076.6h17.1v230.2h-17.1V1076.6z"/>
<path d="M4905.9,1192.3v-0.7c0-62.8,46.4-119,116.1-119s115.4,55.6,115.4,118.4v0.7c0,62.8-46.4,119-116.1,119
	S4905.9,1255.2,4905.9,1192.3L4905.9,1192.3z M5119.6,1192.3v-0.7c0-56.9-41.4-103.6-98.3-103.6s-97.7,46-97.7,102.9v0.7
	c0,56.9,41.4,103.6,98.3,103.6S5119.6,1249.2,5119.6,1192.3L5119.6,1192.3z"/>
<path d="M5195.6,1076.6h16.1l158.8,200.3v-200.3h16.4v230.2h-12.8L5212,1102.2v204.5h-16.4V1076.6z"/>
<path d="M3809.4,371.8c0,67.6-15.5,129.7-46.8,186.5c-31.1,56.8-77.5,101.9-139.1,135.4c-61.6,33.4-136.7,50.1-225.1,50.1
	c-88.4,0-165.2-17.4-227.2-52.2c-61.9-34.8-108-80.6-138.1-137.3c-30.1-56.8-45.2-117.5-45.2-182.3s15-126,44.9-182.6
	c29.9-56.6,76-102.2,138.1-136.9c62.2-34.7,138-52,227.5-52c66.8,0,126.5,9.9,178.9,29.8c52.4,19.9,95.5,46.8,129.2,80.7
	c33.8,34,59.4,73.5,76.8,118.6C3800.7,274.6,3809.4,322,3809.4,371.8 M3587,371.8c0-27.2-4-51.9-12-74.4c-8-22.5-20.1-42-36.3-58.5
	c-16.2-16.6-36-29.4-59.3-38.7c-23.3-9.2-50.3-13.8-80.9-13.8c-58.5,0-104.5,17.1-138,51.2c-33.4,34.1-50.1,78.9-50.1,134.2
	s16.8,100.2,50.4,134.5c33.6,34.3,79.5,51.5,137.6,51.5c40.1,0,74.2-7.9,102.4-23.8c28.2-15.9,49.7-37.8,64.3-65.8
	C3579.6,440.2,3586.9,408.1,3587,371.8"/>
<path d="M4659.2,589.4V193.9h-85.7v-86.5l104-97.1h-217.9v401.1L4084.9,10.3h-194v724.2h216.5V331.4l375.6,403.1h107.8V589.4H4659.2
	z"/>
<path d="M5387,588.9h-318.3V434h304V288.3h-304V155.9h318.6V10.3h-537.1v579h68.4v145.1H5387V588.9z"/>
<path d="M0.1,11.3h199.6c76.3,0,134.8,17.1,175.4,51.3c40.6,34.2,60.9,80.8,60.9,139.8s-20.5,107-61.4,141.9
	c-41,34.9-101,52.3-180.2,52.3H55.9v338.1H0.1L0.1,11.3L0.1,11.3z M55.9,57.8v292.1h134.7c60.4,0,106.4-12.8,137.8-38.3
	c31.4-25.6,47.1-61.6,47.1-108.2s-15.3-80-46.1-106.2C298.7,71,254.7,57.8,197.4,57.8H55.9z"/>
<path d="M1136.9,11.3v723.4h-56.4V391.3H598v343.3h-55.8V11.3H598v333.4h482.5V11.3H1136.9z"/>
<path d="M1590.2,6L1924,734.6h-58.6L1751,484.5h-353.5l-113.8,250.1H1225L1558.8,6H1590.2z M1729.7,437.9L1573.9,97.1l-155.2,340.8
	H1729.7z"/>
<path d="M2352.6,46.9v61.5c-62.9-36.7-116.9-55.1-162.2-55.1s-79.9,13.2-109.1,39.6c-29.2,26.4-43.8,59.1-43.8,98.2
	c0,28,8.7,53.2,26,75.6c17.3,22.4,53.4,44,108.4,64.8c55,20.7,95.1,38,120.3,51.8c25.2,13.8,46.6,33.8,64.2,60.1
	c17.6,26.3,26.4,60.3,26.4,102.1c0,55.6-20.4,102.6-61.1,140.9c-40.8,38.3-90.5,57.5-149.2,57.5s-121.9-21-185.4-63v-65.6
	c70.2,51.2,131,76.8,182.5,76.8c42.9,0,79-14,108.6-41.8c29.6-27.8,44.3-62,44.3-102.4c0-30.8-9.1-58.5-27.4-83.3
	c-18.3-24.7-55.5-47.8-111.5-69.1c-56.1-21.4-96.1-38.6-120.1-51.7c-24-13.1-44.4-31.9-61.1-56.2c-16.8-24.4-25.2-55.7-25.2-94
	c0-53.1,20.4-98.4,61.1-135.9C2079,20.1,2128,1.4,2185.4,1.4C2242.7,1.4,2297.4,16.6,2352.6,46.9"/>
<path d="M2905.5,11.3v46.6h-338.7v289.5H2897v47.3h-330.2V688h338.7v46.7H2511V11.3H2905.5z"/>
</svg>
