<?xml version="1.0" encoding="utf-8"?>
<!-- Generator: $$$/GeneralStr/196=Adobe Illustrator 27.6.0, SVG Export Plug-In . SVG Version: 6.00 Build 0)  -->
<svg version="1.1" id="图层_1" xmlns="http://www.w3.org/2000/svg" xmlns:xlink="http://www.w3.org/1999/xlink" x="0px" y="0px"
	 viewBox="0 0 80 24" style="enable-background:new 0 0 80 24;" xml:space="preserve">
<style type="text/css">
	.st0{fill:#FFFFFF;}
</style>
<g id="XMLID_00000091005853537989205410000017555085467339602856_">
	<g>
		<path class="st0" d="M77.5,12.9c-0.2-0.8-0.6-1.6-1.2-2.2c-1.8-1.8-4.8-1.8-6.6,0c-0.6,0.6-1,1.4-1.2,2.2H77.5z M78,9
			c1.6,1.6,2.2,3.9,1.9,6H68.6c0.2,0.8,0.6,1.6,1.2,2.2c0.9,0.9,2.1,1.3,3.3,1.3c1.3,0,2.6-0.4,3.5-1.3c0.3-0.2,0.5-0.5,0.7-0.8
			l2.2,1.2c-0.3,0.5-0.6,0.9-1.1,1.3c-1.4,1.3-3.4,2-5.3,2c-1.8,0-3.6-0.7-4.9-2c-2.7-2.7-2.7-7.2,0-9.9C70.8,6.4,75.3,6.4,78,9z"/>
		<path class="st0" d="M64.2,10.1c0.3,0.7,0.4,1.7,0.4,2.9v7.6h-2.4v-7.9c0-0.6-0.1-1.1-0.2-1.4c-0.4-1.1-1.5-1.8-2.7-1.8
			c-1.2,0-2.3,0.7-2.7,1.8c-0.2,0.4-0.2,0.8-0.2,1.4v7.9h-2.4v-7.9c0-0.6-0.1-1.1-0.2-1.4c-0.5-1.1-1.5-1.8-2.7-1.8
			c-1.2,0-2.3,0.7-2.7,1.8C48.1,11.6,48,12,48,12.6v7.9h-2.4V7.4H48v1.2c0.8-0.9,1.9-1.5,3.3-1.5c1.8,0,3.2,0.9,4,2.3
			c0.9-1.4,2.5-2.3,4.3-2.3C61.7,7.1,63.4,8.3,64.2,10.1L64.2,10.1z"/>
		<rect x="40.8" y="3" class="st0" width="2.4" height="17.6"/>
		<path class="st0" d="M31.5,9.4c-2.5,0-4.6,2.1-4.6,4.6s2.1,4.6,4.6,4.6c2.5,0,4.6-2.1,4.6-4.6S34,9.4,31.5,9.4z M31.5,20.9
			c-3.8,0-6.9-3.1-6.9-6.9s3.1-6.9,6.9-6.9c0.8,0,1.5,0.1,2.3,0.4C35.2,8,36,9,36,9V7.4h2.4v13.2H36V19c0,0-0.8,1-2.3,1.6
			C33,20.8,32.3,20.9,31.5,20.9z"/>
		<path class="st0" d="M20.8,12.9c-0.2-0.8-0.6-1.6-1.2-2.2C17.8,9,14.8,9,13,10.7c-0.6,0.6-1,1.4-1.2,2.2H20.8z M21.3,9
			c1.6,1.6,2.2,3.9,1.9,6H11.9c0.2,0.8,0.6,1.6,1.2,2.2c0.9,0.9,2.1,1.3,3.3,1.3c1.3,0,2.6-0.4,3.5-1.3c0.3-0.2,0.5-0.5,0.7-0.8
			l2.1,1.2c-0.3,0.5-0.6,0.9-1,1.3c-1.5,1.3-3.4,2-5.4,2c-1.8,0-3.6-0.7-4.9-2c-2.6-2.7-2.6-7.2,0-9.9C14,6.4,18.6,6.4,21.3,9z"/>
		<polygon class="st0" points="2.4,9.8 2.4,20.6 0,20.6 0,9.8 0,7.4 2.4,7.4 8.8,7.4 8.8,9.8 		"/>
	</g>
	<g>
	</g>
</g>
</svg>
