<?xml version="1.0" encoding="utf-8"?>
<!-- Generator: $$$/GeneralStr/196=Adobe Illustrator 27.6.0, SVG Export Plug-In . SVG Version: 6.00 Build 0)  -->
<svg version="1.1" id="图层_1" xmlns="http://www.w3.org/2000/svg" xmlns:xlink="http://www.w3.org/1999/xlink" x="0px" y="0px"
	 viewBox="0 0 120 32" style="enable-background:new 0 0 120 32;" xml:space="preserve">
<style type="text/css">
	.st0{fill:#FFFFFF;}
</style>
<g id="XMLID_00000132794530713331905150000000628617220015216818_">
	<g>
		<path class="st0" d="M111.9,11.7c0,0.3,0,0.7,0,1v0.5h-3.8v-0.8c0-0.2,0-0.4-0.1-0.6c-0.3-0.8-1.1-1.3-1.9-1c-0.5,0.1-0.9,0.5-1,1
			c0,0.2-0.1,0.5,0,0.7v6.8c0,0.2,0,0.4,0,0.6c0.2,0.7,0.8,1.2,1.6,1.1c0.7,0.1,1.4-0.4,1.5-1.1c0-0.2,0-0.4,0-0.6v-2.2h-1.5V15h5.3
			v4c0,0.3,0,0.7-0.1,1c-0.3,2.7-2.6,3.7-5.2,3.7c-2.6,0-5-1-5.2-3.7c0-0.3-0.1-0.7-0.1-1v-6.3c0-0.3,0-0.7,0.1-1
			c0.3-2.8,2.6-3.7,5.2-3.7C109.3,8.1,111.7,8.9,111.9,11.7z"/>
		<polygon class="st0" points="94.1,20.5 93.9,8.5 97.5,8.5 97.5,23.2 92.2,23.2 88.5,10.8 88.7,23.2 85.1,23.2 85.1,8.5 90.6,8.5 
					"/>
		<path class="st0" d="M76.1,21.1c0.5-0.1,0.9-0.5,1-1c0-0.2,0-0.4,0-0.6V8.4h3.8v10.7c0,0.3,0,0.8,0,1c-0.2,2.8-2.4,3.7-5.2,3.7
			c-2.7,0-4.9-0.9-5.2-3.7c0-0.3,0-0.6,0-1V8.4h3.8v11.1c0,0.2,0,0.4,0,0.6C74.5,20.9,75.3,21.3,76.1,21.1z"/>
		<path class="st0" d="M61.8,21.2c0.7,0.1,1.3-0.3,1.4-1c0.1-0.4,0.1-0.7,0-1.1c-0.8-1.9-6-2.8-6.7-5.8c-0.1-0.6-0.2-1.3,0-2
			c0.4-2.4,2.6-3.3,5.2-3.3c2.1,0,5,0.5,5,3.7v1H63v-0.9c0-0.7-0.5-1.3-1.2-1.3c-0.1,0-0.1,0-0.2,0c-0.6-0.1-1.2,0.3-1.3,1
			c0,0.3,0,0.5,0,0.8c0.4,1.7,6,2.6,6.6,5.7c0.2,0.8,0.2,1.6,0,2.4c-0.4,2.5-2.5,3.4-5.2,3.4c-2.8,0-5.4-1-5.4-4.3v-1.1h3.9v1.4
			c0,0.7,0.5,1.3,1.3,1.4C61.7,21.2,61.7,21.2,61.8,21.2z"/>
		<polygon class="st0" points="46.4,8.5 52.4,8.5 52.8,23.4 49,23.4 49,9.6 46.4,23.4 42.6,23.4 40.1,9.6 40,23.4 36.2,23.4 
			36.5,8.5 42.6,8.5 44.5,20.1 		"/>
		<polygon class="st0" points="30.5,8.5 33.2,23.4 29.3,23.4 27.2,9.6 27.2,8.5 		"/>
		<polygon class="st0" points="27.2,8.5 27.2,9.6 25.2,23.4 21.2,23.4 23.9,8.5 		"/>
		<path class="st0" d="M13.4,24C10.6,24,8,23,8,19.6v-1.1h4V20c0,0.7,0.6,1.3,1.3,1.4c0.1,0,0.1,0,0.2,0c0.7,0.1,1.3-0.4,1.4-1
			c0.1-0.4,0.1-0.8,0-1.1c-0.8-2-6.1-2.8-6.7-5.9c-0.1-0.7-0.2-1.4,0-2C8.6,8.9,10.7,8,13.4,8c2.1,0,5,0.5,5,3.8v1.1h-3.7v-0.9
			c0.1-0.7-0.5-1.3-1.2-1.4c-0.1,0-0.1,0-0.2,0c-0.6-0.1-1.2,0.4-1.4,1c0,0.3,0,0.5,0,0.8c0.4,1.7,6.1,2.7,6.7,5.8
			c0.2,0.8,0.2,1.6,0,2.5C18.3,23.1,16.1,24,13.4,24z"/>
	</g>
	<g>
	</g>
</g>
</svg>
