<?xml version="1.0" encoding="utf-8"?>
<!-- Generator: $$$/GeneralStr/196=Adobe Illustrator 27.6.0, SVG Export Plug-In . SVG Version: 6.00 Build 0)  -->
<svg version="1.1" id="图层_2" xmlns="http://www.w3.org/2000/svg" xmlns:xlink="http://www.w3.org/1999/xlink" x="0px" y="0px"
	 viewBox="0 0 174.6 159.3" style="enable-background:new 0 0 174.6 159.3;" xml:space="preserve">
<g>
	<path d="M50.7,134.9h-3c-6-0.2-12-1.8-18.2-4.4c-6-2.8-11-6.8-15.2-12.2c-4.2-5.4-6.2-12.2-6.2-20.6c0-5.4,1-11.2,3.2-17.8
		c4.6-13,11-23.4,19.2-31.6c8.2-8.2,16.8-14.2,26-18c9.2-3.8,17.4-5.8,24.8-5.8c18.2,0.6,30.2,9.8,35.6,27.4l15.4-23.8h28.2
		c-19.8,31.4-31.2,49.2-34.2,53.6c2.6,8.2,5.2,16.6,8,24.8c2.2,6.4,5.4,10.8,9.2,13.2s8.6,3.6,14.2,3.6c2.4,0,5-0.2,8-0.6l-1.6,1.8
		c-1,1-2.6,2.4-4.6,4c-2.2,1.4-4.6,2.8-7.6,4c-3,1-6.2,1.6-10,1.6l-3.8-0.2c-13-1.8-21.6-9.2-25.4-22.4l-2-6.6
		c-8.2,10.2-17.8,17.6-28.6,22.6S60.9,134.9,50.7,134.9z M49.5,121.7c6.6,0,14.4-3.8,23.2-11.2c9-7.6,17.6-18,26.2-31
		c1.2-1.8,1.8-3.2,1.8-4.2s-0.4-2.8-1-5.4c-2.2-9.4-5-17.2-8.2-23.4c-3-6.2-8-9.6-14.8-10.2c-5.4,0-10.8,2.4-16.2,7.4
		c-5.4,4.8-10.4,10.8-14.6,17.6c-4.2,7.2-7.6,14-9.8,20.8c-2.2,7-3.4,13.2-3.4,18.8c0,5.6,1.2,10.2,3.6,14
		C39.1,119.1,43.5,121.3,49.5,121.7z"/>
</g>
</svg>
