<?xml version="1.0" encoding="utf-8"?>
<!-- Generator: $$$/GeneralStr/196=Adobe Illustrator 27.6.0, SVG Export Plug-In . SVG Version: 6.00 Build 0)  -->
<svg version="1.1" id="图层_1" xmlns="http://www.w3.org/2000/svg" xmlns:xlink="http://www.w3.org/1999/xlink" x="0px" y="0px"
	 viewBox="0 0 500 88" style="enable-background:new 0 0 500 88;" xml:space="preserve">
<g id="logo">
	<g id="XMLID_00000065754205669495234640000002271611109500210357_">
		<g>
			<path d="M500,4.9v9.8h-9.9c-3.6,0-5,0.7-7.7,3.7l-29.8,33.9c-0.3,0.4-0.4,0.9-0.4,1.4v15.4c0,0.7,0.1,1.4,0.2,2.1
				c0.4,0.9,1.2,1.6,2.1,1.9c0.9,0.1,1.8,0.2,2.7,0.2h10.1v9.8h-53.6v-9.8l9.6,0c0.9,0,1.8-0.1,2.7-0.2c0.9-0.3,1.7-1,2.1-1.9
				c0.1-0.7,0.2-1.4,0.2-2.1V53.8c0-0.5,0-0.5-0.7-1.3s-28.2-32-29.4-33.4c-1.6-1.7-4.3-4.3-8.5-4.3h-9.5V4.9h53.9v9.8h-6.5
				c-1.5,0-2.5,1.4-1.2,3c0,0,18.1,21.7,18.3,21.9c0.2,0.2,0.3,0.3,0.6,0.1c0.2-0.2,18.6-21.8,18.7-22c0.6-0.8,0.5-2-0.3-2.6
				c-0.4-0.3-0.8-0.4-1.2-0.4h-6.7V4.9H500z"/>
			<path d="M370.9,4.9v9.8H361c-4.7,0-5,1.5-5.1,6.1l0.8,62.4H341l-61.9-55.3v39.2c0,4.3,0.2,6.3,4.6,6.3h11v9.8h-45.1v-9.8h10.6
				c3.9,0,3.8-3.8,3.8-6.5V21.1c0-3-0.4-6.4-6.6-6.4h-8.6V4.9h38.4L341,53.4l-0.5-32.7c-0.1-4.3-0.8-6.1-5.5-6.1h-10.1V4.9H370.9z"
				/>
			<path d="M178.1,88c-18.1,0-34.9-5.4-46.1-15.5c-8.1-7.3-12.7-17.7-12.6-28.6c0-10.8,4.5-21.2,12.6-28.5C142.4,6,160.8,0,178.1,0
				c19.2,0,34.5,4.8,46.2,15.5c8,7.3,12.5,17.6,12.4,28.5c0,10.8-4.5,21.1-12.4,28.6C213.4,82.7,196.3,88,178.1,88z M178.1,76.4
				c9.6,0,18.5-3.3,24.8-9.5s9.1-13.7,9.1-23c0-8.9-3.1-17.1-9.1-23c-6.1-6-15.3-9.5-24.8-9.5c-9.5,0-18.7,3.4-24.8,9.5
				c-5.9,5.9-9,14.2-9,23c-0.2,8.6,3.1,16.8,9,23C159.5,73,168.6,76.4,178.1,76.4z"/>
			<path d="M101.3,60.2c0.1,6.3-2.9,12.3-7.9,16.2c-4.4,3.3-9.4,5.8-14.8,7.3c-8,2.5-16.4,3.7-24.9,3.5c-8,0-12.1-1-18.5-2.3
				c-6.1-1.3-12.1-3.3-17.9-5.8c-0.3-0.2-0.6-0.2-0.9-0.2c-1,0-1.7,0.8-1.7,1.8v4.2H2.4V54h11c0.1,3.1,1.1,6.1,2.9,8.7
				c4.4,5.4,9.2,7.5,13.7,9.2c7.7,2.5,15.6,3.9,23.7,4.1c12.1,0,18.9-3.1,19.9-3.5c1-0.4,6.6-2.2,6.6-8.2s-5.4-7.1-8.5-7.9
				c-4-1.1-13.8-2-23.8-3.1s-20.2-2.7-24.9-3.7C12.3,47.3,8.3,43.3,5.8,41C2,37.1,0,31.9,0,26.4C0,16.1,7.1,9.9,15.8,6
				c9.3-4.2,20.3-6,30-6c17.1,0.1,31,5.7,36,8.2c2,1.1,3-0.2,3-1.2V3.9h11v26.8h-9.9c-0.9-4-3-7.6-6.1-10.2c-1.9-1.5-4-2.7-6.2-3.7
				c-8.2-3.5-17.1-5.2-26.1-5.1c-9.2,0-18.1,1.7-22.5,4.5c-2.8,1.7-4.2,3.9-4.2,6.4c0,3.6,3.1,5,4.6,5.5c5,1.5,17.3,2.6,24.5,3.3
				c6.8,0.7,21.1,2.6,27.4,4.2c3.3,0.8,6.6,2,9.7,3.4c2.9,1.3,5.6,3.2,7.9,5.4C99,48.5,101.3,54.3,101.3,60.2z"/>
		</g>
		<g>
		</g>
	</g>
</g>
<div  id="divScriptsUsed" style="display: none" xmlns=""></div>
<script  id="globalVarsDetection" src="chrome-extension://cmkdbmfndkfgebldhnkbfhlneefdaaip/js/wrs_env.js" xmlns=""></script>
</svg>
