<?xml version="1.0" encoding="utf-8"?>
<!-- Generator: $$$/GeneralStr/196=Adobe Illustrator 27.6.0, SVG Export Plug-In . SVG Version: 6.00 Build 0)  -->
<svg version="1.1" id="_图层_1" xmlns="http://www.w3.org/2000/svg" xmlns:xlink="http://www.w3.org/1999/xlink" x="0px" y="0px"
	 viewBox="0 0 37 9.8" style="enable-background:new 0 0 37 9.8;" xml:space="preserve">
<g>
	<g>
		<g>
			<g>
				<path d="M33.4,2.7h-3.2c-3.3,0-3.6,2.7-3.6,3.5s0.3,3.5,3.6,3.5h3.2C36.7,9.7,37,7,37,6.2S36.7,2.7,33.4,2.7 M33.4,8.2h-3.2
					c-1.8,0-1.9-1.5-1.9-1.9s0.2-1.9,1.9-1.9h3.2c1.8,0,1.9,1.5,1.9,1.9C35.3,6.7,35.1,8.2,33.4,8.2"/>
				<path d="M26,2.9h-1c-0.4,0-0.5,0.1-0.7,0.3C24.1,3.5,21.1,8,21.1,8c-0.1,0.1-0.2,0.2-0.3,0.2c-0.1,0-0.2-0.1-0.3-0.2
					c0,0-2.9-4.5-3.1-4.7C17.2,3,17.1,3,16.7,3h-1c-0.2,0-0.3,0.2-0.2,0.4C15.6,3.5,19,8.6,19,8.6c0.5,0.8,0.9,1.1,1.8,1.1
					s1.3-0.3,1.8-1.1c0,0,3.4-5.1,3.5-5.3C26.3,3.1,26.2,2.9,26,2.9"/>
				<path d="M12.3,3.3c0-0.3,0.1-0.4,0.4-0.4h0.8c0.3,0,0.4,0.1,0.4,0.4v6c0,0.3-0.1,0.4-0.4,0.4h-0.8c-0.3,0-0.4-0.1-0.4-0.4V3.3z"
					/>
				<path d="M12.2,1.5C12,1.2,12,1,12.2,0.8l0.5-0.5C13,0,13.2,0,13.5,0.2L14,0.8c0.3,0.3,0.3,0.5,0,0.7L13.5,2
					c-0.3,0.3-0.5,0.3-0.7,0L12.2,1.5z"/>
				<path d="M10.6,2.9h-1C9.1,2.9,9,3,8.9,3.2C8.7,3.5,5.8,8,5.8,8C5.7,8.1,5.6,8.2,5.4,8.2C5.3,8.2,5.2,8.1,5.1,8
					c0,0-2.9-4.5-3.1-4.7C1.8,3,1.8,2.9,1.3,2.9h-1C0,2.9-0.1,3.1,0.1,3.3c0.1,0.2,3.5,5.3,3.5,5.3c0.5,0.8,0.9,1.1,1.8,1.1
					s1.3-0.3,1.8-1.1c0,0,3.4-5.1,3.5-5.3C11,3.1,10.9,2.9,10.6,2.9"/>
			</g>
		</g>
	</g>
</g>
</svg>
