<?xml version="1.0" encoding="utf-8"?>
<!-- Generator: $$$/GeneralStr/196=Adobe Illustrator 27.6.0, SVG Export Plug-In . SVG Version: 6.00 Build 0)  -->
<svg version="1.1" id="_图层_1" xmlns="http://www.w3.org/2000/svg" xmlns:xlink="http://www.w3.org/1999/xlink" x="0px" y="0px"
	 viewBox="0 0 37 9.8" style="enable-background:new 0 0 37 9.8;" xml:space="preserve">
<style type="text/css">
	.st0{fill:#415FFF;}
</style>
<g>
	<g id="XMLID_00000057133499197372002870000012434834304452208301_">
		<g>
			<path class="st0" d="M35.3,6.3c0-0.4-0.1-1.9-1.9-1.9h-3.2c-1.7,0-1.9,1.5-1.9,1.9c0,0.4,0.1,1.9,1.9,1.9h3.2
				C35.1,8.2,35.3,6.7,35.3,6.3z M33.4,2.7c3.3,0,3.6,2.7,3.6,3.5s-0.3,3.5-3.6,3.5h-3.2c-3.3,0-3.6-2.7-3.6-3.5s0.3-3.5,3.6-3.5
				H33.4z"/>
			<path class="st0" d="M25,2.9h1c0.2,0,0.3,0.2,0.1,0.4c-0.1,0.2-3.5,5.3-3.5,5.3c-0.5,0.8-0.9,1.1-1.8,1.1c-0.9,0-1.3-0.3-1.8-1.1
				c0,0-3.4-5.1-3.5-5.2c-0.1-0.2,0-0.4,0.2-0.4h1c0.4,0,0.5,0,0.7,0.3C17.6,3.5,20.5,8,20.5,8c0.1,0.1,0.2,0.2,0.3,0.2
				c0.1,0,0.2-0.1,0.3-0.2c0,0,3-4.5,3.2-4.8C24.5,3,24.6,2.9,25,2.9z"/>
			<path class="st0" d="M14,1.5L13.5,2c-0.3,0.3-0.5,0.3-0.7,0l-0.6-0.5C12,1.2,12,1,12.2,0.8l0.5-0.5C13,0,13.2,0,13.5,0.2L14,0.8
				C14.3,1.1,14.3,1.3,14,1.5z"/>
			<path class="st0" d="M13.5,2.9c0.3,0,0.4,0.1,0.4,0.4v6c0,0.3-0.1,0.4-0.4,0.4h-0.8c-0.3,0-0.4-0.1-0.4-0.4v-6
				c0-0.3,0.1-0.4,0.4-0.4H13.5z"/>
			<path class="st0" d="M2,3.3C2.2,3.5,5.1,8,5.1,8c0.1,0.1,0.2,0.2,0.3,0.2c0.2,0,0.3-0.1,0.4-0.2c0,0,2.9-4.5,3.1-4.8
				C9,3,9.1,2.9,9.6,2.9h1c0.3,0,0.4,0.2,0.1,0.4c-0.1,0.2-3.5,5.3-3.5,5.3C6.7,9.4,6.3,9.7,5.4,9.7S4.1,9.4,3.6,8.6
				c0,0-3.4-5.1-3.5-5.3C-0.1,3.1,0,2.9,0.3,2.9h1C1.8,2.9,1.8,3,2,3.3z"/>
		</g>
		<g>
		</g>
	</g>
</g>
</svg>
