<?xml version="1.0" encoding="utf-8"?>
<!-- Generator: $$$/GeneralStr/196=Adobe Illustrator 27.6.0, SVG Export Plug-In . SVG Version: 6.00 Build 0)  -->
<svg version="1.1" id="图层_1" xmlns="http://www.w3.org/2000/svg" xmlns:xlink="http://www.w3.org/1999/xlink" x="0px" y="0px"
	 viewBox="0 0 808 808" style="enable-background:new 0 0 808 808;" xml:space="preserve">
<style type="text/css">
	.st0{fill:#FFFFFF;}
</style>
<g>
	<g id="XMLID_00000157989264138378857930000009639657013746863012_">
		<g>
			<path d="M808,404.4c0,134-7.8,243.6-84,319.8S538.1,808,404,808s-243.7-7.7-320-83.9S0,538.3,0,404.4S7.7,160.9,83.9,84.7
				S269.9,0,404,0c133.9,0,243.5,8.5,319.8,84.4C800.2,160.5,808,270.2,808,404.4z"/>
		</g>
		<g>
		</g>
	</g>
	<g id="XMLID_00000124159069672280947120000002388754140641689519_">
		<g>
			<path class="st0" d="M374.3,373.5v180.2c0,2.8-2.2,5-5,5c0,0,0,0-0.1,0h-68.9c-2.8,0-5.1-2.2-5.1-5c0,0,0,0,0,0V373.5
				c0-2.8,2.3-5,5.1-5c0,0,0,0,0,0h68.9C372,368.5,374.2,370.7,374.3,373.5C374.3,373.5,374.3,373.5,374.3,373.5z"/>
		</g>
		<g>
		</g>
	</g>
	<g id="XMLID_00000004527256114834481650000010690803549172342410_">
		<g>
			<path class="st0" d="M509.2,404v149.7c0,2.8-2.3,5-5.1,5h-65.6c-2.8,0.1-5-2.1-5.1-4.9c0,0,0-0.1,0-0.1V398.3
				c-0.1-27.2-1.6-55-15.6-69.1c-12-12.1-34.5-14.9-57.9-15.4H241c-2.8,0-5,2.2-5.1,4.9c0,0,0,0,0,0.1v235c0,2.8-2.3,5-5.1,5h-65.6
				c-2.8,0-5-2.2-5.1-4.9c0,0,0,0,0-0.1V254.3c0-2.8,2.2-5,5-5c0,0,0,0,0.1,0h189.4c49.5,0,101.2,2.3,126.7,27.8
				C506.8,302.7,509.2,354.4,509.2,404z"/>
		</g>
		<g>
		</g>
	</g>
	<g id="XMLID_00000127765233544352434150000017489352585115506863_">
		<g>
			<path class="st0" d="M644.3,254.3v299.4c0,2.8-2.3,5-5.1,5h-65.6c-2.8,0-5-2.2-5.1-4.9c0,0,0,0,0-0.1V254.3c0-2.8,2.2-5,5-5
				c0,0,0,0,0.1,0h65.6C642,249.3,644.3,251.5,644.3,254.3z"/>
		</g>
		<g>
		</g>
	</g>
</g>
</svg>
